<svg version="1.0" xmlns="http://www.w3.org/2000/svg" viewBox="0 22 393 1583" fill="#CBCBCB">
  <g transform="translate(0.000000,1607.000000) scale(0.100000,-0.100000)">
    <path d="M3398 15950 c-38 -11 -48 -19 -42 -34 3 -8 16 -11 34 -8 18 3 30 0
30 -7 0 -6 7 -11 15 -11 9 0 15 -9 16 -22 0 -23 0 -23 10 1 6 14 6 27 1 30 -5
3 -15 18 -23 32 -12 22 -18 25 -41 19z"/>
    <path d="M1787 15834 c-2 -2 -37 -6 -78 -9 -40 -2 -85 -7 -99 -10 -44 -9 -124
-39 -141 -52 -9 -7 -18 -11 -21 -8 -3 3 -18 1 -34 -6 -16 -6 -40 -16 -54 -21
-14 -6 -37 -17 -52 -25 -15 -7 -30 -13 -33 -11 -3 2 -21 -9 -39 -24 -19 -16
-37 -28 -41 -28 -8 0 -165 -156 -165 -165 0 -3 -14 -20 -30 -37 -17 -16 -28
-34 -24 -39 3 -5 -1 -12 -10 -15 -8 -3 -19 -19 -25 -35 -5 -16 -17 -29 -26
-29 -9 0 -14 -4 -10 -10 3 -5 -2 -18 -12 -28 -10 -11 -25 -28 -33 -38 -18 -22
-60 -109 -60 -123 0 -6 -8 -25 -19 -43 -10 -18 -24 -63 -31 -100 -7 -37 -18
-73 -26 -79 -8 -6 -14 -20 -14 -30 0 -10 -8 -24 -19 -30 -10 -7 -16 -20 -14
-29 3 -10 -3 -32 -12 -50 -14 -27 -21 -63 -27 -137 -1 -7 -6 -13 -12 -13 -6 0
-6 -4 1 -11 7 -7 8 -20 4 -33 -9 -25 -7 -303 2 -312 3 -4 2 -16 -4 -27 -8 -14
-8 -18 0 -13 7 4 11 -1 11 -13 0 -12 4 -21 8 -21 5 0 14 -22 22 -50 7 -27 20
-52 28 -55 8 -3 12 -12 9 -19 -6 -16 16 -40 26 -29 4 3 7 -3 7 -15 0 -12 4
-22 10 -22 5 0 17 -16 26 -36 9 -20 23 -38 31 -41 7 -3 13 -11 13 -19 0 -8 5
-14 11 -14 5 0 8 -4 5 -9 -6 -9 69 -75 78 -69 3 2 12 -6 20 -17 8 -11 18 -17
21 -13 10 10 38 -20 30 -32 -3 -5 -1 -10 4 -10 6 0 11 5 11 10 0 6 10 4 23 -5
13 -8 27 -12 30 -8 4 3 7 1 7 -6 0 -7 6 -11 14 -8 8 3 17 -1 20 -9 3 -8 16
-14 30 -14 16 0 27 -7 31 -20 3 -11 15 -20 26 -20 10 0 19 -4 19 -8 0 -5 18
-16 40 -26 22 -9 39 -23 37 -29 -1 -7 10 -12 26 -13 16 -1 32 -5 35 -11 13
-18 48 -29 100 -31 22 -1 31 -6 26 -13 -5 -8 1 -10 20 -7 14 3 29 1 32 -3 3
-5 15 -7 27 -4 12 3 39 -1 60 -10 20 -8 37 -12 37 -9 0 4 7 0 17 -7 9 -8 18
-13 19 -12 2 1 19 -4 38 -12 20 -8 46 -13 58 -11 13 2 31 -1 41 -6 12 -6 23
-5 33 3 12 10 17 10 23 1 9 -16 131 -18 159 -3 14 8 23 8 27 1 4 -7 11 -7 18
-2 11 9 84 23 137 27 14 1 50 8 80 14 30 7 69 15 85 18 17 3 35 9 41 14 7 5
16 9 20 8 19 -5 84 14 95 27 6 8 15 11 21 8 5 -3 14 -1 21 4 12 9 85 27 100
24 4 -1 7 2 7 7 0 8 22 12 78 13 23 0 32 18 10 18 -7 0 -2 9 12 20 14 11 30
20 35 19 6 0 1 -6 -9 -14 -11 -8 -17 -18 -13 -21 13 -13 118 -16 132 -4 8 7
26 9 43 5 16 -3 42 -1 58 6 31 12 216 20 224 9 8 -11 64 8 88 30 12 11 27 19
34 18 7 -2 12 3 10 10 -1 6 2 12 8 12 5 0 10 7 10 16 0 13 3 14 14 5 11 -10
14 -4 12 33 0 24 -4 42 -8 40 -4 -2 -6 4 -5 13 1 25 -32 73 -47 67 -8 -3 -16
2 -20 11 -5 14 -24 15 -153 10 -159 -6 -313 -23 -353 -38 -24 -9 -182 -39
-225 -43 -82 -7 -122 -13 -185 -28 -36 -9 -76 -19 -90 -21 -14 -3 -36 -8 -50
-11 -83 -20 -203 -31 -235 -23 -17 5 -67 11 -111 13 -43 2 -79 5 -79 6 0 1
-16 3 -35 5 -42 3 -138 26 -170 40 -3 2 -15 6 -27 10 -13 4 -23 12 -23 17 0 5
-4 6 -10 3 -5 -3 -10 -1 -10 4 0 6 -8 11 -18 11 -10 0 -22 4 -27 9 -6 6 -23
12 -38 15 -16 3 -34 10 -41 15 -7 6 -16 8 -19 4 -4 -3 -7 -1 -7 5 0 7 -8 12
-18 12 -10 0 -23 5 -30 12 -7 7 -12 9 -12 4 0 -4 -13 1 -30 11 -16 9 -30 21
-30 25 0 4 -5 8 -11 8 -7 0 -26 16 -44 34 -18 19 -35 32 -39 29 -3 -4 -6 -1
-6 5 0 7 -6 12 -13 12 -7 0 -19 10 -27 21 -18 26 -30 39 -66 70 -16 14 -38 41
-48 62 -11 20 -24 37 -29 37 -6 0 -8 2 -5 6 3 3 -5 26 -18 51 -13 26 -20 51
-17 56 3 5 0 12 -6 16 -12 8 -16 146 -6 211 3 19 7 53 9 75 2 22 11 61 19 88
9 26 13 47 9 47 -4 0 -1 4 7 9 13 8 31 58 47 131 3 14 13 36 22 50 9 14 16 28
14 32 -4 14 29 79 37 73 5 -3 7 4 4 15 -3 11 -1 20 5 20 6 0 14 9 17 21 25 78
190 245 310 314 28 16 53 33 56 37 3 5 25 11 50 14 24 3 46 9 49 13 3 4 28 7
57 7 28 -1 49 2 46 7 -2 4 2 7 9 8 7 0 36 2 63 4 58 4 122 -12 245 -64 69 -29
100 -49 138 -88 27 -28 68 -63 91 -77 23 -15 41 -30 41 -35 0 -6 10 -13 23
-17 12 -4 60 -44 107 -89 115 -111 158 -138 296 -184 124 -42 154 -63 154
-107 0 -13 5 -24 11 -24 6 0 9 -9 6 -19 -4 -17 9 -31 29 -31 2 0 4 20 4 44 0
50 2 53 98 102 60 31 172 122 172 140 0 3 18 29 40 59 22 30 40 56 40 57 -2 4
10 39 26 78 16 38 19 78 11 125 -6 38 -28 85 -38 85 -5 0 -6 6 -3 13 2 7 -6
19 -18 25 -35 18 -90 10 -115 -16 -13 -13 -23 -19 -23 -15 0 4 -9 -5 -20 -22
-11 -16 -20 -25 -20 -20 0 10 -12 -15 -69 -137 -17 -37 -41 -73 -53 -79 -27
-15 -131 -21 -138 -8 -3 5 -17 10 -30 11 -14 2 -27 6 -30 9 -3 3 -21 17 -41
30 -86 57 -159 117 -239 196 -81 79 -206 179 -260 205 -14 7 -27 15 -30 18 -8
8 -61 38 -110 61 -45 22 -92 34 -165 45 -121 16 -155 20 -158 18z m-32 -264
c-3 -5 -11 -10 -16 -10 -6 0 -7 5 -4 10 3 6 11 10 16 10 6 0 7 -4 4 -10z
m-110 -20 c-3 -5 -11 -10 -16 -10 -6 0 -7 5 -4 10 3 6 11 10 16 10 6 0 7 -4 4
-10z m584 -119 c28 -27 51 -54 51 -60 0 -6 6 -8 14 -5 7 3 33 -11 57 -30 24
-19 64 -47 88 -61 52 -33 76 -55 119 -115 45 -63 40 -73 -10 -20 -22 25 -48
45 -57 45 -10 0 -18 12 -21 30 -3 19 -12 31 -25 34 -28 5 -66 32 -59 42 3 5
-1 9 -9 9 -8 0 -20 6 -27 14 -6 8 -19 12 -27 9 -12 -5 -14 -3 -8 7 5 8 4 11
-3 6 -6 -3 -26 8 -44 27 -39 38 -102 117 -95 117 3 0 28 -22 56 -49z m509
-400 c15 -22 15 -22 -11 -10 -15 7 -27 19 -27 26 0 20 20 12 38 -16z m85 -18
c4 -2 7 -10 6 -16 0 -9 -2 -9 -6 1 -2 6 -15 12 -28 12 -13 0 -27 5 -30 10 -6
10 37 4 58 -7z m117 -103 c0 -5 -4 -10 -10 -10 -5 0 -10 5 -10 10 0 6 5 10 10
10 6 0 10 -4 10 -10z m305 -1220 l20 -9 -20 -2 c-11 -1 -35 -1 -54 0 -20 2
-37 -3 -42 -11 -6 -9 -9 -10 -9 -1 0 9 -7 10 -22 4 -13 -4 -58 -9 -102 -9 -43
-1 -84 -6 -92 -13 -7 -6 -22 -8 -34 -4 -12 4 -20 2 -20 -6 0 -8 -4 -8 -15 1
-31 25 10 37 175 50 133 10 192 10 215 0z"/>
    <path d="M3330 15743 c0 -7 -6 -13 -14 -13 -13 0 -26 -31 -31 -75 -1 -11 6
-28 17 -39 22 -21 37 -14 18 9 -11 13 -10 14 4 9 25 -10 47 14 39 44 -8 33
-33 81 -33 65z"/>
    <path d="M3280 15592 c0 -5 7 -9 15 -9 8 0 12 4 9 9 -3 4 -9 8 -15 8 -5 0 -9
-4 -9 -8z"/>
    <path d="M2920 14799 c0 -5 5 -7 10 -4 6 3 10 8 10 11 0 2 -4 4 -10 4 -5 0
-10 -5 -10 -11z"/>
    <path d="M2913 14763 c-21 -8 -14 -25 7 -18 15 5 20 2 20 -12 0 -11 -6 -25
-12 -32 -11 -11 -10 -13 2 -9 23 7 38 57 20 68 -16 11 -19 11 -37 3z"/>
    <path d="M2900 14714 c0 -14 3 -14 15 -4 8 7 15 14 15 16 0 2 -7 4 -15 4 -8 0
-15 -7 -15 -16z"/>
    <path d="M1599 13345 c-3 -2 -22 -7 -42 -9 -21 -3 -42 -8 -47 -11 -6 -3 -10
-2 -10 2 0 8 -18 8 -120 -3 -30 -3 -68 -7 -85 -8 -16 -2 -43 -8 -58 -14 -16
-7 -32 -10 -37 -7 -5 3 -11 1 -15 -4 -3 -6 -12 -8 -21 -4 -17 6 -134 -18 -134
-28 0 -4 -13 -10 -29 -14 -16 -3 -35 -13 -42 -21 -6 -8 -17 -14 -24 -14 -7 0
-18 -7 -25 -15 -7 -8 -21 -15 -31 -15 -10 0 -23 -9 -29 -21 -7 -11 -18 -18
-25 -15 -8 3 -21 -4 -28 -14 -8 -11 -17 -17 -20 -14 -6 7 -106 -92 -159 -158
-45 -55 -71 -157 -70 -273 1 -138 2 -145 19 -145 8 0 12 -4 8 -10 -3 -5 6 -27
20 -49 14 -23 25 -45 25 -51 0 -5 5 -10 10 -10 6 0 10 -5 10 -11 0 -6 13 -24
30 -40 16 -17 33 -36 37 -43 5 -7 26 -25 48 -41 22 -16 60 -50 84 -75 24 -25
48 -44 53 -43 4 2 8 -1 8 -7 0 -5 14 -17 30 -25 17 -9 43 -29 59 -45 15 -16
32 -26 36 -22 5 4 6 0 2 -9 -4 -13 0 -16 16 -13 12 2 16 2 10 -2 -16 -7 -17
-24 -2 -24 7 0 22 -11 35 -25 13 -14 30 -25 38 -25 10 0 13 -6 9 -17 -4 -11
-3 -14 6 -9 8 5 18 0 27 -13 8 -12 22 -21 30 -21 8 0 24 -11 36 -25 12 -14 28
-23 34 -21 7 3 31 -15 52 -40 22 -24 45 -44 51 -44 6 0 11 -5 11 -11 0 -6 7
-9 15 -5 9 3 15 0 15 -9 0 -8 7 -15 15 -15 8 0 15 -4 15 -9 0 -5 16 -12 35
-15 19 -4 35 -11 35 -16 0 -6 3 -9 8 -9 22 4 42 -2 37 -11 -3 -5 1 -11 9 -11
25 -2 30 -4 44 -13 7 -4 19 -5 27 -2 8 3 14 0 12 -7 -1 -7 6 -11 16 -11 9 1
17 -2 17 -6 0 -4 12 -10 28 -13 15 -3 45 -10 67 -16 26 -6 43 -7 51 0 7 6 15
6 18 1 3 -5 24 -12 46 -16 22 -3 40 -10 40 -14 0 -11 50 -31 95 -37 22 -4 49
-9 60 -13 11 -3 29 -7 40 -8 11 -1 43 -5 70 -8 117 -14 154 -10 288 29 86 25
239 106 285 152 12 12 26 23 31 23 8 0 59 54 76 81 6 9 27 41 48 72 20 31 37
63 37 72 0 8 4 14 9 13 22 -7 249 369 266 442 8 31 53 131 59 131 22 -2 39 1
28 6 -6 2 -10 9 -6 14 3 5 0 8 -8 7 -8 -2 -12 5 -10 17 14 104 12 140 -9 208
-12 40 -22 78 -22 85 0 6 -4 12 -9 12 -4 0 -8 15 -8 34 0 19 -4 37 -9 40 -4 3
-7 30 -6 61 2 56 -10 80 -26 54 -6 -10 -9 -11 -9 -1 0 6 -6 12 -14 12 -8 0
-17 7 -20 16 -3 9 -12 14 -19 11 -13 -4 -98 38 -108 55 -4 7 -14 6 -27 -1 -14
-8 -23 -8 -27 -1 -4 7 -14 3 -25 -10 -18 -20 -36 -28 -25 -10 10 17 -5 11 -28
-10 -12 -11 -27 -18 -35 -15 -7 3 -10 0 -7 -6 4 -6 -3 -7 -22 -3 -39 9 -43 13
-43 35 0 10 -4 19 -8 19 -5 0 -15 11 -22 25 -7 14 -21 25 -31 25 -10 0 -21 5
-24 10 -4 6 -15 8 -25 5 -10 -3 -21 -2 -24 3 -9 15 -71 24 -193 27 -66 2 -121
9 -135 16 -13 7 -26 12 -30 11 -4 -1 -29 8 -55 19 -26 11 -79 23 -118 25 -38
3 -76 7 -83 9 -7 3 -24 0 -38 -5 -14 -6 -23 -7 -21 -2 3 4 -25 7 -61 7 -72 1
-132 8 -147 17 -19 12 -149 8 -157 -5 -6 -9 -8 -9 -8 1 0 12 -12 16 -21 7z
m201 -299 c74 -3 151 -7 170 -10 32 -6 104 -12 235 -20 28 -2 56 1 63 7 10 8
16 7 21 -1 4 -7 23 -14 42 -16 19 -2 41 -6 49 -9 80 -29 146 -41 234 -41 69
-1 101 3 103 11 3 7 11 9 19 6 8 -3 21 0 28 6 9 8 28 10 49 6 27 -5 34 -11 30
-25 -3 -11 4 -24 17 -33 14 -10 20 -23 18 -39 -2 -14 2 -22 10 -21 6 2 12 -3
12 -11 0 -8 7 -16 15 -20 8 -3 15 -10 15 -16 0 -6 16 -24 35 -41 45 -40 80
-97 82 -134 2 -57 -27 -216 -47 -253 -11 -20 -48 -75 -81 -122 -93 -132 -109
-158 -109 -179 0 -11 -11 -28 -25 -39 -14 -11 -25 -25 -25 -31 0 -7 -7 -14
-15 -17 -8 -4 -15 -12 -15 -20 0 -8 -7 -14 -16 -14 -9 0 -35 -19 -58 -42 -115
-117 -171 -143 -329 -157 -74 -6 -103 -3 -282 33 -51 10 -81 20 -93 29 -7 5
-15 7 -19 4 -3 -4 -12 -2 -20 4 -7 6 -13 8 -13 4 0 -5 -8 -1 -17 7 -18 15 -63
29 -95 29 -10 0 -18 4 -18 9 0 11 -79 42 -91 35 -5 -4 -9 0 -9 7 0 8 -21 25
-47 39 -25 13 -65 34 -87 45 -23 12 -62 42 -87 67 -26 25 -56 48 -68 52 -11 3
-21 11 -21 16 0 6 -4 8 -8 5 -5 -3 -15 6 -22 19 -7 14 -18 25 -23 25 -5 0 -20
11 -33 25 -13 14 -26 25 -29 25 -13 0 -201 184 -252 247 -21 26 -42 51 -47 55
-10 6 -34 49 -56 98 -18 39 -21 82 -8 115 14 38 70 114 83 115 6 0 25 14 43
31 17 16 32 27 32 24 0 -4 12 3 26 14 15 12 34 21 43 21 10 0 22 5 29 12 7 7
12 9 12 4 0 -4 13 2 29 13 15 11 30 18 33 16 3 -3 26 2 53 10 27 8 52 12 56 9
4 -2 10 0 14 6 4 6 10 8 13 6 4 -2 32 -1 62 2 53 7 104 7 390 -2z"/>
    <path d="M1774 12845 c-3 -7 -14 -11 -25 -8 -13 4 -34 -9 -70 -45 -28 -28 -51
-57 -53 -65 -1 -7 -9 -26 -19 -40 -20 -31 -21 -43 -4 -51 9 -5 9 -7 -1 -12 -6
-3 -10 -10 -6 -15 3 -5 1 -9 -4 -9 -14 0 -2 -97 18 -145 7 -16 12 -35 12 -41
-1 -6 9 -16 22 -24 14 -7 24 -16 23 -19 -3 -12 28 -51 40 -51 7 0 13 -5 13
-11 0 -6 7 -9 15 -5 8 3 14 0 12 -7 -1 -6 8 -13 21 -15 12 -2 22 -7 22 -12 0
-10 39 -23 63 -20 9 1 17 -3 17 -8 0 -6 11 -9 25 -7 14 1 25 -2 25 -6 0 -5 20
-7 45 -5 24 2 46 0 47 -4 2 -4 13 -10 25 -14 18 -6 22 -4 17 8 -4 11 2 19 20
26 40 15 158 16 181 1 20 -12 19 -12 -2 -8 -16 4 -20 1 -16 -11 4 -10 2 -13
-5 -8 -11 6 -72 -19 -72 -30 0 -12 80 5 121 26 79 40 129 117 129 200 0 28 -5
50 -11 50 -5 0 -7 5 -4 10 13 20 -49 130 -107 192 -16 16 -28 34 -28 39 0 6
-4 8 -8 5 -5 -3 -21 10 -37 29 -15 20 -36 35 -49 35 -17 0 -18 2 -6 10 12 7
12 12 2 22 -9 9 -12 9 -12 -3 -1 -11 -3 -11 -13 2 -7 9 -25 15 -40 15 -16 -1
-31 2 -33 6 -3 4 0 8 7 8 7 0 10 3 6 6 -3 3 -12 2 -19 -2 -15 -10 -68 -12 -68
-3 0 3 -15 6 -33 7 -19 1 -45 6 -59 11 -15 5 -29 6 -34 1 -5 -5 -25 -5 -47 0
-29 6 -40 5 -43 -5z m26 -339 c0 -3 -4 -8 -10 -11 -5 -3 -10 -1 -10 4 0 6 5
11 10 11 6 0 10 -2 10 -4z m-30 -146 c6 -11 7 -20 3 -20 -5 0 -14 9 -21 20 -7
11 -8 20 -2 20 5 0 14 -9 20 -20z m229 -16 c21 -27 46 -92 38 -100 -4 -5 -38
70 -36 82 0 4 -5 10 -13 15 -8 5 -22 -1 -40 -18 -15 -15 -30 -24 -33 -21 -3 3
8 17 24 31 16 13 27 28 24 31 -4 3 -1 6 5 6 6 0 20 -12 31 -26z"/>
    <path d="M2121 12201 c-10 -7 -10 -10 -1 -16 6 -4 16 -3 22 3 13 13 -4 23 -21
13z"/>
    <path d="M860 11522 c0 -5 -12 -10 -27 -11 -88 -6 -103 -8 -109 -14 -4 -4 -13
-7 -21 -7 -22 0 -100 -40 -125 -64 -13 -13 -31 -25 -40 -29 -10 -3 -18 -15
-18 -26 0 -11 -8 -26 -18 -33 -33 -24 -49 -80 -57 -198 -5 -83 -8 -100 -16
-115 -4 -5 -5 -29 -4 -52 2 -24 -1 -46 -6 -49 -6 -3 -5 -11 2 -20 6 -7 8 -25
5 -38 -3 -14 -2 -36 4 -50 6 -15 6 -26 0 -26 -5 0 -9 -22 -8 -49 0 -28 -3 -54
-6 -60 -8 -12 -16 -66 -20 -128 -2 -34 0 -40 13 -35 14 5 14 3 3 -11 -8 -9
-11 -20 -8 -26 3 -5 0 -12 -6 -14 -10 -4 -10 -8 1 -15 8 -6 11 -17 8 -25 -3
-8 0 -25 7 -39 7 -13 11 -29 8 -36 -2 -6 1 -12 6 -12 6 0 8 -9 5 -20 -3 -11 0
-20 6 -20 6 0 11 -8 11 -18 0 -25 67 -93 84 -86 8 3 24 0 36 -6 16 -9 27 -8
50 4 17 8 30 10 30 5 0 -5 11 -3 25 3 14 6 25 15 25 20 0 4 7 8 15 8 24 0 78
30 93 51 7 11 19 19 26 19 8 0 17 8 20 18 8 21 28 55 43 74 7 7 14 26 17 41 2
15 7 31 10 36 4 5 10 29 15 53 5 24 12 54 16 68 3 14 8 40 10 59 3 18 7 37 10
41 4 7 15 81 41 280 12 89 8 159 -10 179 -9 10 -13 21 -9 24 3 4 1 7 -7 7 -10
0 -10 3 0 15 7 8 9 15 4 16 -5 0 1 4 13 9 32 13 167 4 200 -14 53 -27 91 -89
86 -136 -2 -14 -3 -81 -2 -150 1 -69 2 -207 3 -307 0 -101 3 -183 7 -183 3 0
6 -15 7 -32 1 -41 6 -65 15 -74 4 -4 7 -16 7 -26 0 -10 7 -18 15 -18 8 0 15
-7 15 -16 0 -33 55 -64 115 -64 19 0 35 6 38 14 3 8 16 12 31 11 14 -2 26 1
26 6 0 5 6 9 14 9 8 0 34 23 59 51 37 42 46 61 56 117 6 37 11 99 10 137 0 39
4 90 10 115 5 25 13 65 16 90 4 25 9 59 12 75 2 17 5 36 6 43 0 6 4 12 9 12 4
0 7 4 5 9 -3 12 45 91 56 91 5 0 16 9 25 20 23 27 112 41 191 30 33 -5 64 -11
69 -14 5 -3 19 -7 33 -9 43 -8 183 -59 195 -72 7 -6 38 -25 71 -41 32 -16 63
-36 70 -44 15 -18 16 -108 3 -182 -24 -127 -15 -222 30 -328 13 -30 34 -66 47
-79 13 -13 23 -30 23 -38 0 -8 5 -11 10 -8 6 3 13 -2 17 -12 4 -10 11 -21 16
-24 5 -4 5 -9 -2 -13 -6 -4 -11 -3 -11 2 0 5 -23 8 -51 6 -109 -5 -174 -88
-157 -201 1 -7 4 -13 7 -13 3 0 7 -16 8 -35 3 -30 -1 -36 -22 -41 -29 -7 -215
16 -215 26 0 4 -6 7 -12 7 -56 4 -143 16 -193 28 -150 35 -241 58 -250 63 -5
4 -16 7 -25 8 -8 1 -55 13 -103 27 -48 15 -109 29 -135 32 -58 8 -153 23 -209
34 -24 5 -59 7 -80 5 -20 -2 -43 2 -50 8 -10 8 -13 6 -13 -6 0 -9 -7 -16 -15
-16 -23 0 -119 -105 -110 -120 3 -4 -2 -13 -10 -20 -10 -8 -13 -22 -9 -39 4
-18 3 -22 -4 -12 -5 7 -15 10 -22 6 -10 -6 -9 -9 0 -15 17 -10 3 -31 -15 -23
-8 3 -15 0 -15 -6 0 -6 7 -11 15 -11 8 0 15 -8 15 -17 0 -11 -3 -14 -8 -7 -9
13 -42 26 -43 16 0 -4 -3 -20 -5 -37 -3 -16 -6 -35 -6 -42 -1 -6 -8 -9 -15 -6
-8 3 -13 2 -12 -3 2 -5 -3 -36 -10 -69 -8 -33 -13 -70 -13 -81 0 -13 -26 -49
-62 -88 -35 -36 -60 -68 -58 -71 3 -3 -3 -15 -14 -28 -22 -24 -54 -91 -54
-110 0 -50 -98 -157 -144 -157 -9 0 -16 -4 -16 -8 0 -5 -11 -14 -25 -20 -30
-14 -43 -24 -98 -74 -22 -21 -43 -38 -47 -38 -3 0 -19 -18 -36 -41 -16 -22
-34 -46 -39 -52 -16 -18 -45 -99 -45 -125 0 -12 -4 -22 -8 -22 -5 0 -9 -16
-10 -35 -1 -20 -4 -40 -7 -45 -3 -4 0 -10 5 -12 10 -3 17 -24 19 -55 1 -7 7
-13 15 -13 8 0 23 -11 34 -25 11 -13 23 -21 27 -17 5 4 5 -1 2 -10 -4 -10 -4
-18 0 -18 3 0 12 8 19 18 7 9 14 12 14 7 0 -15 60 -18 60 -4 0 8 4 8 13 0 10
-8 19 -7 33 4 10 8 30 15 44 15 20 0 22 2 10 10 -12 8 -10 10 8 10 13 0 21 4
18 9 -4 5 15 17 40 27 47 18 86 50 92 75 2 8 8 16 13 17 5 2 16 10 23 18 8 8
19 14 25 14 6 0 11 4 11 9 0 5 13 23 30 41 16 18 30 36 30 42 0 5 5 6 10 3 6
-3 10 1 10 11 0 19 38 58 80 79 35 18 44 19 34 4 -4 -7 -1 -10 7 -7 8 3 13 11
11 18 -2 7 3 10 12 7 8 -3 30 -1 48 4 44 13 158 18 158 7 0 -5 13 -7 30 -3 16
4 35 3 42 -2 12 -7 49 -13 106 -17 12 0 22 -5 22 -10 0 -4 9 -6 19 -3 11 3 30
-2 42 -11 13 -9 39 -17 58 -19 20 -2 38 -7 41 -11 10 -14 49 -32 81 -37 18 -3
52 -19 76 -36 25 -16 49 -27 54 -24 5 4 9 1 9 -5 0 -7 8 -9 20 -5 11 3 20 2
20 -3 0 -9 37 -25 53 -23 4 1 7 -3 7 -9 0 -5 8 -10 18 -10 10 0 22 -3 26 -7 4
-5 11 -9 14 -9 30 -6 52 -18 52 -29 0 -6 26 -20 58 -31 31 -10 69 -27 85 -37
15 -10 27 -16 27 -12 0 3 11 -2 25 -11 15 -10 25 -12 25 -5 0 6 4 11 10 11 5
0 6 -7 3 -17 -4 -9 -2 -14 3 -11 5 4 27 -2 48 -13 22 -10 44 -19 49 -19 5 0
21 -8 35 -19 15 -10 39 -21 55 -25 15 -3 36 -15 47 -26 10 -10 28 -17 40 -15
11 2 20 0 20 -6 0 -5 7 -9 16 -9 11 0 14 -5 10 -17 -4 -10 -4 -14 0 -11 3 4
15 -2 26 -12 11 -10 26 -16 33 -14 7 3 27 -10 45 -27 29 -29 31 -35 20 -53
-13 -21 -12 -21 8 -3 20 18 21 18 51 -4 35 -26 39 -31 15 -22 -12 4 -15 2 -12
-8 3 -8 15 -13 28 -11 14 2 20 0 16 -7 -4 -6 -1 -9 7 -5 8 3 25 -8 39 -25 20
-23 28 -27 38 -18 10 10 12 8 7 -5 -5 -13 -1 -18 13 -18 11 0 20 -5 20 -11 0
-5 4 -7 10 -4 6 3 10 -1 10 -9 0 -20 14 -21 29 -2 8 9 33 13 81 12 49 -1 69 2
66 10 -5 14 13 34 31 34 7 0 13 -8 13 -17 1 -17 2 -17 15 0 9 13 21 17 37 13
13 -3 18 -3 11 0 -8 4 -9 13 -1 35 5 16 14 26 19 23 6 -3 9 10 7 31 -2 40 -13
54 -22 30 -3 -8 0 -15 7 -15 7 0 4 -7 -6 -14 -10 -8 -18 -17 -18 -20 2 -18 -1
-25 -19 -46 -22 -26 -37 -21 -25 7 5 10 9 20 9 23 1 3 7 15 14 26 6 12 12 37
13 55 1 19 6 44 11 56 18 37 1 109 -31 134 -16 13 -27 28 -24 35 2 6 -3 14
-12 18 -11 4 -14 12 -10 27 6 18 5 19 -13 8 -12 -7 -27 -9 -38 -4 -11 5 -22 9
-26 10 -5 2 -9 4 -10 5 -11 10 -78 5 -102 -7 -24 -12 -30 -13 -37 -1 -7 10 -9
10 -9 1 0 -7 -11 -13 -25 -13 -14 0 -25 5 -25 10 0 6 -4 10 -9 10 -5 0 -31 10
-58 22 -26 11 -57 23 -68 25 -11 2 -25 10 -31 18 -6 8 -14 12 -17 9 -3 -3 -19
4 -35 16 -17 13 -38 20 -46 17 -10 -4 -16 -1 -16 8 0 18 -16 20 -23 3 -4 -8
-6 -7 -6 3 -1 10 -13 19 -29 22 -15 3 -38 15 -51 26 -23 20 -36 25 -55 22 -5
-1 -5 6 -2 16 6 14 4 15 -5 6 -13 -13 -21 -11 -94 22 -27 13 -77 31 -110 41
-33 10 -61 22 -63 26 -2 5 -10 8 -17 8 -12 0 -84 36 -249 124 -27 14 -55 26
-61 26 -7 0 -18 7 -25 15 -7 8 -22 15 -34 15 -11 0 -43 12 -71 25 -27 14 -56
25 -63 25 -7 0 -11 3 -9 8 3 4 -5 8 -16 8 -12 1 -33 4 -46 8 -14 3 -56 13 -95
22 -39 9 -80 20 -91 24 -30 13 -120 21 -217 21 -55 0 -90 5 -95 12 -4 6 -8 49
-9 95 -1 47 -8 89 -14 98 -10 11 -10 14 1 14 12 0 12 2 0 9 -8 5 -12 18 -8 30
4 15 0 21 -11 21 -15 1 -15 2 1 14 27 21 20 27 -20 21 -36 -5 -35 -4 13 16 28
11 51 27 51 35 0 8 -4 14 -8 14 -3 0 -9 10 -12 21 -4 17 -3 19 6 10 18 -18 27
-13 27 14 0 14 4 25 9 25 6 0 9 9 8 20 -1 11 -5 20 -9 20 -5 0 -4 9 2 19 5 11
7 27 4 35 -4 11 0 16 14 16 12 0 24 5 28 11 9 16 25 -11 18 -33 -4 -14 0 -16
21 -12 16 3 35 -2 50 -14 20 -16 38 -19 103 -16 43 2 92 6 110 9 20 3 32 1 32
-6 0 -6 8 -8 20 -4 12 4 20 2 20 -5 0 -7 7 -9 16 -6 8 3 25 -1 38 -9 13 -9 47
-17 77 -20 80 -6 83 -7 95 -17 6 -4 19 -6 28 -2 9 3 16 1 16 -5 0 -5 12 -10
28 -10 37 0 93 -7 117 -14 11 -4 44 -9 74 -12 30 -4 73 -13 95 -20 23 -8 55
-15 73 -15 17 0 38 -6 45 -13 12 -12 38 -16 97 -17 13 0 29 -4 35 -9 6 -5 34
-12 63 -16 29 -4 57 -13 63 -20 11 -13 13 -132 5 -210 -2 -16 -4 -38 -4 -47
-1 -14 -6 -15 -33 -7 -18 6 -42 12 -53 13 -21 3 -99 24 -125 34 -8 3 -18 4
-22 4 -5 -1 -8 3 -8 10 0 6 -2 9 -5 6 -7 -7 -81 8 -110 21 -11 5 -51 19 -90
31 -38 12 -92 32 -120 45 -27 12 -72 31 -100 41 -27 10 -52 21 -55 25 -3 3
-15 9 -27 13 -12 4 -38 23 -58 42 -19 19 -40 34 -45 34 -6 0 -10 7 -10 15 0
14 -17 20 -47 16 -8 -1 -10 5 -6 15 5 14 2 16 -23 10 -16 -4 -37 -8 -46 -10
-10 -1 -21 -5 -24 -9 -4 -4 -15 -7 -24 -7 -10 0 -23 -6 -30 -14 -6 -8 -18 -12
-26 -9 -10 4 -12 0 -8 -12 4 -9 2 -20 -3 -24 -5 -3 -15 -26 -21 -50 -9 -39 -9
-44 9 -48 15 -4 17 -8 8 -19 -9 -11 -7 -15 5 -20 9 -4 16 -14 14 -23 -1 -9 0
-16 3 -16 3 0 20 -12 38 -27 29 -25 50 -33 74 -29 5 1 6 -3 2 -9 -3 -5 1 -10
9 -10 9 0 16 -4 16 -9 0 -5 14 -14 30 -21 17 -7 30 -17 30 -22 0 -5 6 -8 13
-7 13 3 90 -17 122 -30 59 -26 107 -41 116 -36 5 4 9 2 9 -3 0 -5 11 -14 25
-20 15 -7 25 -8 25 -2 0 8 43 -6 130 -43 14 -6 27 -11 30 -12 3 -1 16 -6 30
-12 14 -6 42 -18 64 -27 21 -9 49 -16 62 -16 12 0 25 -4 28 -9 4 -5 39 -25 79
-45 39 -20 79 -41 87 -45 41 -23 116 -54 129 -54 9 0 21 -3 26 -7 6 -4 30 -11
55 -15 25 -4 51 -12 58 -17 8 -7 12 -7 12 1 0 6 15 11 33 11 17 0 48 6 68 13
37 13 109 69 109 86 0 5 8 8 18 7 11 -1 16 5 14 16 -1 10 5 29 13 42 9 14 14
30 10 36 -3 5 -1 10 6 10 8 0 8 4 -1 15 -7 8 -10 25 -7 37 12 46 -68 168 -110
168 -8 0 -11 5 -7 11 4 8 -1 9 -16 4 -14 -4 -20 -3 -16 3 3 5 -4 12 -17 16
-12 3 -23 2 -25 -3 -2 -5 -12 -6 -24 -3 -13 3 -19 1 -15 -5 7 -12 -23 -11 -42
2 -11 6 -13 4 -8 -8 4 -10 2 -16 -6 -14 -7 1 -11 -3 -10 -10 2 -8 -4 -10 -14
-6 -13 5 -15 2 -10 -11 4 -10 3 -15 -3 -11 -6 3 -16 3 -22 -2 -7 -4 -16 -8
-20 -9 -5 -1 -11 -3 -15 -4 -9 -3 -57 1 -60 4 -2 2 4 43 11 92 8 49 18 110 21
136 6 48 15 59 65 87 72 40 143 126 172 211 47 135 51 170 28 260 -7 24 -6 36
2 42 7 4 15 4 18 0 11 -15 172 -92 181 -86 5 3 9 1 9 -4 0 -5 10 -10 23 -10
12 0 51 -13 87 -29 83 -38 140 -52 212 -52 32 0 62 -3 68 -6 6 -4 58 -6 117
-6 l106 1 -8 -87 c-4 -49 -9 -113 -11 -143 -2 -30 -5 -85 -7 -122 -5 -81 1
-118 18 -118 17 0 26 28 25 77 -1 33 8 130 26 277 9 83 23 113 62 138 122 82
184 186 197 333 16 168 -4 228 -88 274 -47 25 -77 26 -125 4 -45 -20 -124 -99
-121 -121 3 -36 -1 -57 -9 -45 -5 8 -8 -1 -8 -22 0 -19 3 -35 7 -35 4 0 10
-11 13 -24 3 -14 14 -32 23 -41 13 -14 14 -18 2 -25 -7 -5 -10 -12 -6 -16 3
-4 13 -2 20 5 19 15 47 4 47 -19 0 -33 -45 -57 -127 -69 -78 -11 -93 -10 -188
8 -70 13 -85 17 -127 35 -21 9 -48 16 -61 16 -14 0 -30 7 -37 15 -7 8 -20 15
-30 15 -10 0 -23 7 -30 15 -6 8 -21 17 -32 21 -49 15 -142 107 -173 169 -31
63 -36 164 -15 275 14 76 14 180 0 194 -6 6 -10 18 -10 28 0 10 -17 36 -38 58
-38 40 -72 61 -197 124 -131 65 -289 115 -455 142 -54 9 -168 3 -219 -12 -69
-20 -178 -74 -220 -110 -17 -14 -34 -24 -37 -21 -3 3 -14 38 -25 77 -25 96
-60 150 -126 198 -18 12 -40 24 -50 25 -22 5 -48 14 -88 31 -53 24 -113 39
-129 33 -8 -3 -16 -1 -18 5 -3 7 -24 11 -50 10 -26 -1 -50 3 -53 8 -4 6 -38
10 -80 9 -40 -1 -78 1 -84 5 -6 4 -11 3 -11 -2z m120 -316 c0 -11 -19 -15 -25
-6 -3 5 1 10 9 10 9 0 16 -2 16 -4z m1684 -1054 c3 -5 -1 -9 -9 -9 -8 0 -15 4
-15 9 0 4 4 8 9 8 6 0 12 -4 15 -8z m-244 -1116 c0 -3 -4 -8 -10 -11 -5 -3
-10 -1 -10 4 0 6 5 11 10 11 6 0 10 -2 10 -4z m50 -37 c0 -4 -7 -6 -15 -3 -8
4 -15 10 -15 15 0 4 7 6 15 3 8 -4 15 -10 15 -15z m236 -27 c-10 -2 -22 0 -28
6 -6 6 0 7 19 4 21 -5 23 -7 9 -10z m264 -382 c0 -5 -2 -10 -4 -10 -3 0 -8 5
-11 10 -3 6 -1 10 4 10 6 0 11 -4 11 -10z m-350 -176 c0 -11 -5 -10 -20 3 -11
10 -20 18 -20 19 0 1 9 0 20 -3 11 -3 20 -12 20 -19z"/>
    <path d="M1045 10990 c-3 -5 1 -10 9 -10 9 0 16 5 16 10 0 6 -4 10 -9 10 -6 0
-13 -4 -16 -10z"/>
    <path d="M2375 9990 c-3 -5 -1 -10 4 -10 6 0 11 5 11 10 0 6 -2 10 -4 10 -3 0
-8 -4 -11 -10z"/>
    <path d="M980 9480 c0 -5 5 -10 10 -10 6 0 10 5 10 10 0 6 -4 10 -10 10 -5 0
-10 -4 -10 -10z"/>
    <path d="M2510 9349 c0 -5 5 -7 10 -4 6 3 10 8 10 11 0 2 -4 4 -10 4 -5 0 -10
-5 -10 -11z"/>
    <path d="M2598 8893 c7 -3 16 -2 19 1 4 3 -2 6 -13 5 -11 0 -14 -3 -6 -6z"/>
    <path d="M3080 8602 c0 -5 7 -16 16 -23 14 -12 16 -11 13 5 -4 20 -29 35 -29
18z"/>
    <path d="M3130 8500 c0 -5 5 -10 11 -10 5 0 7 5 4 10 -3 6 -8 10 -11 10 -2 0
-4 -4 -4 -10z"/>
    <path d="M3145 8450 c3 -5 8 -10 11 -10 2 0 4 5 4 10 0 6 -5 10 -11 10 -5 0
-7 -4 -4 -10z"/>
    <path d="M1895 8440 c-3 -5 -1 -10 4 -10 6 0 11 5 11 10 0 6 -2 10 -4 10 -3 0
-8 -4 -11 -10z"/>
    <path d="M3136 8414 c-8 -22 4 -40 15 -23 11 18 11 39 0 39 -5 0 -12 -7 -15
-16z"/>
    <path d="M2550 8356 c0 -2 7 -7 16 -10 8 -3 12 -2 9 4 -6 10 -25 14 -25 6z"/>
    <path d="M2690 8250 c0 -5 5 -10 11 -10 5 0 7 5 4 10 -3 6 -8 10 -11 10 -2 0
-4 -4 -4 -10z"/>
    <path d="M2785 8190 c-7 -12 18 -24 37 -18 8 3 5 9 -9 16 -14 8 -24 9 -28 2z"/>
    <path d="M3040 8190 c0 -5 7 -10 15 -10 8 0 15 5 15 10 0 6 -7 10 -15 10 -8 0
-15 -4 -15 -10z"/>
    <path d="M2970 8180 c0 -5 5 -10 10 -10 6 0 10 5 10 10 0 6 -4 10 -10 10 -5 0
-10 -4 -10 -10z"/>
    <path d="M2924 8165 c-4 -9 -4 -19 0 -22 3 -4 6 -1 6 5 0 7 5 12 11 12 6 0 9
-6 6 -13 -3 -8 -1 -20 4 -28 7 -10 9 -4 7 20 -3 37 -24 53 -34 26z"/>
    <path d="M3670 7652 c-25 -8 -49 -21 -53 -29 -4 -7 -13 -13 -19 -13 -15 0 -88
-72 -88 -87 0 -6 -5 -13 -11 -15 -7 -2 -13 -19 -15 -38 -3 -18 -10 -40 -17
-48 -9 -12 -9 -16 0 -19 14 -5 8 -48 -10 -70 -6 -9 -6 -13 1 -13 6 0 10 -12
10 -27 -1 -16 4 -41 11 -58 13 -32 14 -31 -70 -100 -24 -20 -81 -45 -109 -49
-9 -1 -20 -5 -25 -8 -29 -17 -124 -36 -265 -52 -14 -2 -27 -4 -30 -5 -7 -4
-156 -11 -300 -14 -69 -2 -131 -6 -138 -11 -6 -4 -12 -4 -12 1 0 4 -5 1 -11
-7 -8 -11 -12 -12 -16 -2 -2 6 -10 9 -16 5 -6 -4 -62 -8 -123 -10 -62 -1 -124
-4 -138 -7 -14 -3 -26 -2 -26 2 0 4 -15 8 -32 8 -18 1 -91 5 -163 8 -71 4
-159 9 -195 10 -36 2 -99 7 -140 10 -120 12 -201 18 -265 21 -33 1 -62 4 -65
5 -8 4 -38 8 -113 14 -38 3 -72 8 -76 11 -5 2 -44 7 -87 11 -43 3 -88 7 -99 8
-11 1 -31 -2 -45 -7 -34 -12 -70 -19 -102 -18 -15 0 -30 -4 -33 -9 -10 -17
-54 -11 -74 9 -11 11 -22 17 -24 14 -8 -7 -19 35 -13 46 4 5 -6 8 -20 6 -19
-2 -28 3 -31 16 -5 18 -93 67 -123 67 -28 1 -70 9 -76 14 -7 7 -44 -2 -44 -11
0 -3 -20 -7 -45 -8 -45 -2 -108 -30 -99 -45 3 -4 -7 -8 -21 -8 -26 0 -55 -20
-55 -38 0 -6 -7 -12 -15 -16 -8 -3 -23 -21 -32 -41 -9 -19 -22 -35 -28 -35 -7
0 -11 -11 -9 -27 1 -15 -2 -34 -9 -41 -6 -8 -12 -24 -12 -36 0 -11 -6 -32 -14
-45 -8 -14 -8 -21 -2 -17 14 9 14 4 -3 -29 -8 -15 -12 -33 -10 -40 3 -7 1 -16
-5 -20 -8 -4 -8 -12 0 -27 9 -16 8 -23 -2 -29 -11 -7 -10 -9 5 -9 16 0 17 -2
5 -17 -11 -13 -11 -17 -1 -20 6 -3 12 -20 12 -40 0 -26 5 -36 20 -40 11 -3 20
-9 20 -14 0 -9 36 -49 45 -49 3 0 10 0 16 0 5 0 9 -10 7 -22 -2 -11 3 -23 10
-25 6 -3 12 2 12 10 0 11 11 14 45 12 25 -1 45 1 45 5 0 7 49 5 78 -4 12 -4
26 -1 34 8 9 8 44 16 84 20 102 8 102 8 96 29 -3 13 -1 18 8 15 8 -2 25 7 39
21 21 21 34 25 69 23 27 -2 42 1 42 8 0 7 6 10 14 7 8 -3 17 0 19 7 3 8 18 17
34 20 15 4 36 15 45 23 10 9 28 17 40 19 13 2 41 8 63 13 59 13 178 23 279 23
49 -1 98 4 108 9 13 7 23 7 32 0 6 -6 22 -8 34 -4 12 3 22 1 22 -5 0 -7 29
-11 73 -11 39 0 90 -3 112 -6 22 -3 54 -6 70 -7 17 -1 33 -7 37 -13 5 -6 8 -6
8 2 0 8 16 10 53 7 28 -3 58 -5 65 -4 58 6 115 0 128 -13 4 -4 15 -7 25 -7 14
0 17 -7 14 -30 -2 -16 0 -30 5 -30 6 0 10 -5 10 -11 0 -6 -7 -8 -16 -5 -14 5
-15 4 -5 -8 7 -8 14 -27 17 -42 3 -16 11 -42 19 -59 20 -46 26 -83 15 -90 -6
-4 -8 -15 -5 -25 3 -10 2 -21 -4 -24 -5 -3 -8 -14 -7 -24 2 -9 -1 -30 -6 -47
-6 -16 -12 -74 -14 -127 -2 -53 -11 -118 -20 -143 -8 -26 -16 -56 -17 -68 -1
-12 -8 -27 -17 -34 -8 -7 -10 -13 -4 -13 10 0 -2 -46 -29 -110 -4 -8 -8 -26
-11 -40 -8 -48 -34 -94 -78 -142 -10 -10 -18 -23 -18 -29 0 -5 -4 -8 -8 -5 -5
3 -21 -7 -38 -21 -43 -37 -76 -50 -152 -58 -24 -3 -48 -7 -52 -10 -5 -3 -11
-1 -14 4 -3 5 -15 7 -26 4 -11 -3 -18 -9 -15 -13 2 -4 -15 -17 -38 -29 -47
-24 -93 -87 -103 -142 -4 -19 -11 -40 -17 -46 -6 -9 -6 -13 2 -13 7 0 10 -4 7
-9 -11 -18 18 -77 55 -113 22 -21 39 -33 39 -26 0 9 3 9 12 0 7 -7 35 -12 63
-12 46 0 53 -3 64 -27 7 -14 15 -55 18 -90 4 -46 11 -66 23 -73 33 -17 39 8
26 107 -9 75 -9 98 1 118 8 14 17 25 22 25 5 0 29 20 54 45 26 25 50 45 55 45
5 0 17 9 27 20 10 11 23 20 29 20 6 0 27 14 46 31 19 17 50 44 68 59 17 16 32
32 32 36 0 6 59 84 71 94 3 3 9 18 13 33 4 15 11 25 16 22 6 -3 10 -1 10 5 0
5 9 29 19 53 17 37 27 65 38 102 1 6 11 42 23 80 11 39 23 99 26 135 9 98 34
267 49 335 4 17 8 44 10 60 2 17 6 44 9 60 19 121 27 209 22 230 -4 15 -2 25
4 25 6 0 8 5 5 10 -4 6 -11 7 -17 4 -7 -5 -9 -1 -5 9 3 9 3 18 -1 20 -4 2 -1
2 6 0 8 -2 19 0 24 3 6 4 27 9 47 11 51 6 64 9 81 16 8 4 51 6 95 5 80 -2 160
5 225 20 19 5 46 6 60 3 14 -3 43 -5 65 -4 22 1 81 4 132 7 50 2 96 7 102 10
6 4 27 9 48 12 48 5 203 54 223 69 18 14 128 58 132 53 2 -1 17 9 33 25 16 15
33 27 37 27 9 0 141 111 184 154 16 17 53 64 81 104 46 65 52 80 59 145 9 89
7 118 -13 185 -17 57 -72 112 -112 112 -12 0 -21 5 -21 11 0 6 -6 9 -14 6 -7
-3 -17 -2 -22 2 -5 4 -29 1 -54 -7z m-3238 -827 c0 -5 -5 -11 -11 -13 -6 -2
-11 4 -11 13 0 9 5 15 11 13 6 -2 11 -8 11 -13z m102 -61 c3 -8 2 -12 -4 -9
-6 3 -10 10 -10 16 0 14 7 11 14 -7z m-40 -36 c-8 -29 -26 -40 -39 -27 -7 7
-2 17 14 30 30 24 34 24 25 -3z m-70 -9 c-21 -24 -44 -24 -44 -1 0 12 9 17 30
18 29 1 30 0 14 -17z"/>
    <path d="M3445 7380 c-3 -5 -1 -10 4 -10 6 0 11 5 11 10 0 6 -2 10 -4 10 -3 0
-8 -4 -11 -10z"/>
    <path d="M3430 7190 c0 -5 5 -10 10 -10 6 0 10 5 10 10 0 6 -4 10 -10 10 -5 0
-10 -4 -10 -10z"/>
    <path d="M760 7060 c0 -5 5 -10 11 -10 5 0 7 5 4 10 -3 6 -8 10 -11 10 -2 0
-4 -4 -4 -10z"/>
    <path d="M1140 6640 c0 -5 5 -10 11 -10 5 0 7 5 4 10 -3 6 -8 10 -11 10 -2 0
-4 -4 -4 -10z"/>
    <path d="M1946 6591 c-4 -5 -2 -12 3 -15 5 -4 12 -2 15 3 4 5 2 12 -3 15 -5 4
-12 2 -15 -3z"/>
    <path d="M1940 6506 c0 -9 5 -16 10 -16 6 0 10 4 10 9 0 6 -4 13 -10 16 -5 3
-10 -1 -10 -9z"/>
    <path d="M475 6500 c3 -5 8 -10 11 -10 2 0 4 5 4 10 0 6 -5 10 -11 10 -5 0 -7
-4 -4 -10z"/>
    <path d="M740 6454 c0 -17 22 -14 28 4 2 7 -3 12 -12 12 -9 0 -16 -7 -16 -16z"/>
    <path d="M320 6375 c0 -8 7 -15 15 -15 8 0 15 7 15 15 0 8 -7 15 -15 15 -8 0
-15 -7 -15 -15z"/>
    <path d="M396 6372 c-3 -6 -1 -14 5 -17 15 -10 25 3 12 16 -7 7 -13 7 -17 1z"/>
    <path d="M2843 5513 c-13 -2 -36 -18 -52 -34 -16 -16 -34 -29 -40 -29 -6 0
-11 -7 -11 -15 0 -8 -4 -15 -8 -15 -5 0 -17 -8 -28 -18 -10 -9 -75 -46 -144
-80 -156 -79 -209 -108 -230 -127 -9 -8 -20 -15 -23 -15 -4 0 -26 -13 -49 -30
-22 -16 -66 -42 -97 -56 -31 -15 -83 -40 -116 -56 -57 -28 -122 -55 -155 -63
-8 -2 -15 -4 -15 -5 0 -2 -38 -11 -52 -12 -7 -1 -13 -6 -13 -11 0 -6 -3 -7 -7
-4 -3 4 -17 0 -30 -8 -13 -9 -23 -11 -23 -5 0 5 -5 10 -11 10 -6 0 -9 -7 -5
-15 3 -9 -3 -19 -14 -25 -11 -6 -20 -7 -20 -3 -1 4 -7 -3 -15 -17 -10 -19 -10
-27 -2 -33 8 -6 5 -7 -6 -3 -12 4 -20 0 -23 -12 -3 -9 -10 -25 -15 -35 -9 -16
-8 -17 12 -7 16 9 20 9 14 1 -4 -7 -1 -18 5 -26 7 -8 9 -15 4 -15 -5 0 13 -11
39 -26 57 -30 102 -37 131 -22 11 6 30 12 41 14 30 3 349 154 365 173 3 3 25
16 50 29 25 12 81 43 125 67 134 75 174 93 178 82 1 -5 16 2 31 16 16 15 31
26 35 25 3 -1 20 4 36 11 17 7 45 15 62 18 28 5 34 2 42 -20 6 -14 13 -52 16
-84 9 -90 16 -121 32 -134 25 -21 36 3 26 58 -6 26 -11 79 -12 117 -2 59 1 72
20 92 12 13 27 24 32 24 16 0 74 67 82 96 15 53 16 59 16 94 0 56 -12 99 -26
94 -7 -3 -15 2 -18 10 -3 8 -23 20 -44 25 -39 11 -51 12 -90 4z"/>
    <path d="M1480 4980 c0 -5 5 -10 10 -10 6 0 10 5 10 10 0 6 -4 10 -10 10 -5 0
-10 -4 -10 -10z"/>
    <path d="M1670 4941 c0 -5 7 -11 14 -14 10 -4 13 -1 9 9 -6 15 -23 19 -23 5z"/>
    <path d="M1318 4873 c7 -3 16 -2 19 1 4 3 -2 6 -13 5 -11 0 -14 -3 -6 -6z"/>
    <path d="M2810 4870 c0 -5 5 -10 10 -10 6 0 10 5 10 10 0 6 -4 10 -10 10 -5 0
-10 -4 -10 -10z"/>
    <path d="M2845 4866 c-11 -8 -35 -13 -52 -11 -28 2 -31 0 -23 -15 7 -13 6 -20
-6 -24 -9 -3 -21 -3 -27 1 -6 4 -8 0 -5 -9 4 -8 -2 -22 -13 -31 -10 -9 -19
-28 -19 -42 0 -16 -6 -25 -15 -25 -16 0 -18 -8 -15 -52 1 -14 -4 -29 -10 -33
-7 -4 -10 0 -8 10 2 10 -3 20 -11 23 -10 3 -12 0 -8 -12 10 -25 -37 -69 -67
-64 -14 3 -27 0 -29 -5 -2 -7 -47 -11 -115 -11 -62 -1 -112 -4 -112 -7 0 -4
-10 -7 -22 -7 -13 0 -120 -4 -238 -8 -191 -6 -219 -5 -248 10 -18 9 -32 14
-32 11 0 -3 -10 1 -22 9 -27 18 -110 38 -102 25 3 -5 -6 -9 -20 -9 -14 0 -26
-5 -26 -11 0 -5 -4 -8 -9 -4 -16 9 -73 -53 -71 -78 1 -12 1 -24 0 -27 -4 -12
-7 -64 -3 -52 8 20 25 14 18 -7 -6 -21 13 -71 28 -71 5 0 17 -8 26 -19 18 -21
85 -35 146 -31 50 3 71 2 115 -4 44 -7 170 -6 365 0 128 4 204 5 335 3 80 -2
209 15 235 30 6 3 19 6 30 7 31 2 65 14 65 25 0 5 9 9 20 9 11 0 20 7 20 15 0
8 3 14 8 13 26 -9 110 111 95 135 -3 5 0 12 6 16 6 4 12 30 14 57 2 27 7 55
11 62 4 7 2 12 -4 12 -7 0 -9 7 -6 16 3 8 2 12 -4 9 -6 -3 -10 3 -10 14 0 11
-15 34 -32 52 -18 18 -27 30 -20 25 14 -9 16 3 2 24 -9 13 -10 13 -10 0 0 -9
-3 -11 -8 -5 -8 12 -29 18 -57 17 -11 0 -14 2 -7 5 24 9 12 25 -14 19 -22 -6
-25 -4 -19 14 8 24 6 24 -20 6z"/>
    <path d="M2700 4811 c0 -5 7 -12 16 -15 14 -5 15 -4 4 9 -14 17 -20 19 -20 6z"/>
    <path d="M1356 4796 c3 -8 1 -17 -5 -21 -6 -3 -11 1 -11 9 0 9 -4 16 -10 16
-5 0 -10 -10 -10 -22 0 -16 -3 -19 -8 -10 -14 21 -82 -13 -95 -48 -6 -16 -22
-34 -36 -40 -25 -11 -25 -12 -7 -25 10 -8 19 -26 19 -40 0 -14 4 -25 9 -25 7
0 7 -4 0 -12 -5 -7 -8 -24 -7 -38 2 -18 -8 -38 -32 -65 -60 -69 -126 -178
-139 -227 -1 -5 -3 -11 -4 -15 -1 -5 -2 -12 -1 -16 2 -12 -52 -97 -61 -97 -5
0 -8 -8 -8 -17 0 -9 -6 -24 -13 -32 -8 -9 -20 -32 -27 -51 -7 -19 -27 -64 -44
-100 -25 -54 -30 -77 -29 -132 0 -66 25 -138 48 -140 6 0 16 -9 22 -18 10 -14
24 -17 65 -15 83 4 168 32 168 55 0 16 140 148 174 164 19 9 39 22 46 31 7 8
19 15 26 15 17 0 93 38 117 58 9 8 20 12 23 9 4 -3 19 0 35 8 15 8 41 16 57
18 15 2 33 6 39 10 6 4 22 7 34 6 13 0 64 4 112 8 48 5 90 7 92 5 2 -3 32 -6
67 -7 35 -2 64 -4 66 -5 1 -2 7 -4 12 -5 6 -1 11 -4 13 -5 1 -1 27 -4 57 -6
65 -4 92 -9 119 -23 11 -6 29 -11 40 -11 12 0 21 -4 21 -10 0 -5 8 -10 18 -10
10 0 36 -9 58 -19 22 -11 52 -23 67 -26 15 -4 27 -11 27 -16 0 -15 91 -51 134
-53 67 -3 136 48 174 129 30 62 22 176 -15 229 -16 23 -33 41 -38 42 -26 2
-65 17 -65 25 0 5 -9 9 -20 9 -11 0 -20 -6 -20 -14 0 -21 -20 -30 -33 -17 -15
15 -27 14 -27 -3 0 -8 -10 -22 -22 -30 -20 -14 -18 -21 5 -17 4 0 7 -3 7 -8 0
-14 -127 -4 -190 15 -30 9 -77 20 -105 25 -80 13 -297 41 -320 41 -58 -1 -230
-14 -237 -18 -5 -3 -32 -8 -61 -10 -93 -9 -162 -24 -232 -50 -11 -4 -28 -9
-37 -10 -10 -2 -41 -15 -70 -29 -38 -18 -55 -22 -64 -14 -11 9 -11 16 1 39 8
16 17 37 18 47 2 10 9 31 15 46 7 16 12 33 12 38 0 5 5 9 10 9 6 0 10 7 10 16
0 9 14 39 30 66 17 26 30 53 30 58 0 6 14 40 32 77 18 38 34 75 35 83 10 49
10 92 1 126 -5 22 -10 47 -11 57 -2 20 -8 21 -26 5 -9 -8 -12 -9 -7 -1 7 13
-2 43 -15 43 -4 0 -6 -6 -3 -14z m1224 -610 c0 -3 -4 -8 -10 -11 -5 -3 -10 -1
-10 4 0 6 5 11 10 11 6 0 10 -2 10 -4z"/>
    <path d="M1615 4650 c-7 -12 2 -30 16 -30 12 0 12 27 0 35 -5 3 -12 1 -16 -5z"/>
    <path d="M3070 3522 c-14 -1 -47 -11 -75 -22 -27 -10 -81 -24 -120 -30 -78
-13 -168 -37 -265 -71 -89 -31 -90 -31 -130 -36 -19 -2 -57 -10 -85 -18 -27
-8 -68 -17 -90 -21 -22 -3 -42 -7 -45 -9 -9 -6 -94 -18 -132 -19 -21 0 -38 -4
-38 -8 0 -5 -13 -8 -29 -8 -16 0 -44 -6 -62 -14 -19 -7 -40 -11 -48 -8 -7 2
-16 0 -20 -5 -6 -9 -107 -34 -141 -35 -8 -1 -21 -5 -27 -10 -7 -6 -48 -11 -90
-12 -65 -2 -85 -7 -120 -29 -24 -15 -43 -24 -43 -20 0 5 -5 0 -11 -9 -5 -10
-16 -18 -23 -18 -8 0 -16 -7 -20 -15 -3 -8 -10 -15 -17 -15 -6 0 -9 7 -5 15 3
9 0 15 -9 15 -9 0 -12 6 -9 15 4 8 1 15 -5 15 -6 0 -8 6 -5 14 3 7 -5 32 -17
55 -20 40 -21 45 -7 88 25 80 -14 178 -79 198 -17 4 -23 2 -23 -8 0 -10 -7
-13 -20 -10 -29 8 -65 -26 -64 -62 0 -16 4 -38 8 -47 4 -9 5 -22 1 -27 -3 -6
3 -18 14 -28 11 -9 18 -20 15 -25 -3 -4 1 -5 9 -2 18 7 31 -39 18 -64 -5 -9
-23 -30 -39 -45 -24 -23 -34 -46 -47 -105 -29 -137 -42 -212 -44 -254 -1 -10
-9 -18 -18 -18 -15 0 -16 -2 -3 -10 10 -7 11 -12 4 -17 -12 -9 -28 -44 -25
-57 1 -4 -5 -18 -12 -30 -8 -12 -17 -42 -20 -66 -9 -77 -17 -112 -26 -124 -7
-9 -20 -62 -27 -111 -7 -53 -18 -95 -24 -95 -7 0 -22 -71 -25 -115 0 -11 -4
-26 -9 -33 -13 -21 3 -99 27 -136 22 -34 22 -34 87 -29 88 7 90 7 132 26 21 9
42 17 48 17 19 0 10 -18 -12 -23 -12 -4 -19 -9 -16 -13 12 -11 68 20 65 36 -1
11 8 15 40 15 23 1 46 4 50 9 4 5 -3 5 -16 1 -16 -5 -21 -4 -17 4 4 6 14 11
22 11 8 0 14 4 14 9 0 5 7 12 16 15 10 4 13 2 9 -7 -4 -6 0 -4 8 6 16 19 37
23 37 7 0 -5 5 -10 10 -10 6 0 9 6 8 13 -4 15 64 19 75 3 6 -8 10 -8 14 1 3 9
10 10 23 3 13 -7 21 -5 31 6 10 12 14 12 20 2 7 -10 9 -10 9 0 0 6 9 12 19 12
11 0 22 4 26 9 3 6 13 9 23 9 9 -1 28 2 41 6 19 7 23 5 18 -6 -4 -12 5 -14 44
-12 27 1 49 -1 49 -4 0 -9 64 -7 80 3 7 4 16 2 20 -5 4 -7 9 -8 11 -2 7 18 85
22 105 6 18 -14 17 -15 -11 -11 -27 5 -28 4 -11 -8 10 -8 32 -12 49 -10 17 2
45 -2 61 -10 17 -8 49 -16 71 -18 22 -3 80 -14 129 -26 50 -12 96 -19 103 -17
7 3 22 -3 33 -14 11 -11 24 -20 29 -20 5 0 14 -7 21 -15 7 -8 21 -15 31 -15
10 0 23 -8 28 -17 6 -10 11 -13 11 -7 0 6 11 12 25 12 13 0 22 -4 19 -9 -8
-14 6 -9 109 34 46 20 75 102 62 183 -5 35 -12 46 -41 63 -19 12 -32 15 -28 9
6 -10 4 -10 -8 0 -10 8 -31 10 -59 6 -71 -10 -131 -5 -174 14 -25 12 -61 18
-95 17 -62 -2 -83 5 -54 16 16 6 16 8 2 8 -9 1 -20 -3 -23 -9 -10 -16 -28 -12
-21 5 4 12 2 13 -14 3 -10 -7 -17 -15 -14 -19 2 -4 -20 2 -48 14 -29 12 -57
28 -61 35 -5 7 -11 11 -15 8 -7 -4 -61 5 -222 34 -74 13 -314 17 -405 6 -33
-4 -96 -8 -140 -9 l-80 -2 2 60 c1 33 3 68 3 78 1 20 30 23 48 5 8 -8 12 -8
12 -1 0 7 14 8 40 3 23 -4 43 -3 46 2 3 5 11 5 17 0 7 -4 59 -7 117 -5 58 1
215 5 350 8 135 3 263 7 285 9 22 3 74 7 115 10 41 3 86 8 100 11 119 31 219
47 232 39 7 -4 8 -3 4 4 -4 7 2 16 16 21 59 24 105 70 113 113 3 12 8 24 12
27 7 5 10 69 5 113 -3 29 -47 69 -68 61 -13 -5 -16 -3 -12 8 7 18 -53 24 -63
7 -6 -9 -11 -9 -21 0 -8 6 -19 7 -28 2 -8 -5 -17 -7 -21 -5 -3 3 -12 -7 -19
-20 -7 -14 -20 -25 -28 -25 -8 0 -12 -6 -9 -14 3 -8 -1 -17 -10 -20 -9 -4 -13
-9 -9 -13 12 -13 -59 -45 -131 -59 -41 -8 -111 -16 -156 -19 -45 -3 -107 -9
-137 -14 -30 -5 -122 -8 -205 -6 -405 10 -451 8 -499 -16 -55 -27 -74 -22 -68
20 2 17 7 31 11 31 3 0 7 25 7 55 1 30 5 62 9 72 5 10 9 29 10 43 3 37 15 70
26 70 5 0 9 10 9 21 0 21 1 21 27 4 22 -15 25 -15 20 -2 -4 11 -2 14 9 10 8
-3 13 -11 10 -18 -5 -15 35 -53 50 -48 6 2 21 0 35 -5 15 -6 41 -4 74 4 27 8
70 16 95 20 25 3 60 12 78 20 18 9 54 19 80 24 26 5 79 16 117 25 39 9 88 18
110 19 22 2 81 13 130 26 50 12 144 35 210 51 66 16 131 31 145 33 14 2 36 8
50 14 23 9 169 32 215 34 11 1 38 -2 60 -7 22 -4 46 -7 53 -8 6 0 12 -1 12 -1
0 -1 9 -26 19 -56 10 -32 24 -55 32 -55 8 0 13 8 11 20 -13 91 -14 105 -4 105
14 0 86 70 102 100 17 31 14 107 -5 136 -16 25 -59 41 -95 36z m-1595 -441
c-3 -6 -11 -11 -17 -11 -6 0 -6 6 2 15 14 17 26 13 15 -4z m705 -771 c0 -5 -7
-10 -16 -10 -8 0 -12 5 -9 10 3 6 10 10 16 10 5 0 9 -4 9 -10z"/>
    <path d="M1190 3490 c0 -5 4 -10 9 -10 6 0 13 5 16 10 3 6 -1 10 -9 10 -9 0
-16 -4 -16 -10z"/>
    <path d="M1460 3170 c19 -13 30 -13 30 0 0 6 -10 10 -22 10 -19 0 -20 -2 -8
-10z"/>
    <path d="M2255 2310 c-3 -5 -1 -10 4 -10 6 0 11 5 11 10 0 6 -2 10 -4 10 -3 0
-8 -4 -11 -10z"/>
    <path d="M3045 2253 c-40 -10 -97 -66 -123 -122 -14 -31 -26 -60 -27 -66 -1
-5 -13 -33 -28 -61 -34 -66 -100 -124 -141 -124 -17 0 -47 -4 -66 -9 -19 -5
-60 -13 -90 -19 -49 -10 -89 -17 -219 -37 -19 -3 -75 -10 -125 -15 -50 -6
-104 -13 -121 -16 -16 -3 -82 -7 -145 -9 -63 -2 -171 -8 -240 -13 -69 -6 -138
-10 -155 -10 -30 1 -112 -8 -150 -16 -18 -3 -70 -30 -110 -54 -5 -4 -13 -7
-17 -7 -4 0 -16 -8 -27 -17 -11 -9 -29 -21 -40 -28 -12 -6 -21 -15 -21 -21 0
-6 -10 -25 -22 -42 -13 -18 -22 -32 -20 -32 8 0 -13 -42 -28 -55 -9 -8 -15
-21 -13 -27 3 -7 1 -13 -4 -13 -5 0 -17 -19 -27 -42 -10 -24 -23 -54 -29 -67
-7 -13 -12 -45 -12 -72 0 -38 5 -52 24 -68 13 -12 28 -21 33 -21 5 0 6 -10 3
-22 -7 -23 -7 -23 9 -3 15 19 17 19 29 3 8 -10 16 -15 19 -13 3 3 11 -1 18
-10 19 -23 5 -29 -29 -12 -41 20 -40 7 1 -16 31 -18 33 -18 45 -1 12 16 13 16
13 1 0 -24 79 -66 136 -72 27 -3 71 -8 98 -11 27 -2 53 -7 57 -9 4 -3 9 1 12
7 4 10 7 11 18 1 16 -15 33 -17 24 -3 -3 6 -1 10 4 10 6 0 11 -4 11 -8 0 -10
36 -9 46 1 4 4 18 4 32 0 16 -4 23 -2 19 5 -4 6 6 10 27 10 19 0 39 3 45 7 6
3 11 1 11 -5 0 -7 8 -5 22 4 12 9 32 13 44 10 12 -3 25 -1 29 5 3 6 10 9 15 6
5 -3 19 -1 32 4 12 5 27 9 32 9 5 0 12 5 15 11 4 6 20 13 37 15 16 2 44 9 62
14 17 6 32 8 32 4 0 -4 4 -1 8 5 5 7 30 16 58 19 27 3 51 10 52 15 2 5 17 9
33 9 16 0 29 5 29 11 0 5 4 8 9 4 5 -3 27 1 48 9 21 8 49 15 63 14 14 0 36 2
50 6 55 13 70 14 75 6 3 -4 23 -7 45 -6 24 0 42 -4 45 -12 2 -7 -6 -36 -19
-66 -24 -54 -125 -166 -196 -218 -33 -24 -151 -70 -168 -66 -4 1 -26 -2 -49
-6 -23 -4 -59 -9 -80 -10 -21 -2 -54 -6 -73 -10 -19 -4 -46 -8 -60 -10 -14 -1
-30 -5 -35 -8 -6 -3 -32 -8 -60 -12 -83 -10 -173 -32 -191 -47 -6 -5 -14 -6
-17 -3 -4 4 -19 2 -34 -4 -15 -6 -40 -14 -55 -16 -15 -3 -32 -8 -38 -11 -6 -4
-25 -8 -43 -10 -18 -3 -50 -8 -72 -11 -22 -4 -58 -9 -80 -10 -83 -4 -229 -37
-313 -70 -48 -19 -93 -34 -99 -34 -7 0 -13 -5 -13 -11 0 -6 -7 -9 -15 -5 -8 3
-19 -2 -24 -12 -5 -9 -13 -14 -16 -10 -4 4 -13 2 -21 -5 -33 -30 -44 -37 -44
-31 0 4 -9 -2 -20 -14 -12 -12 -27 -22 -35 -22 -8 0 -15 -4 -15 -10 0 -5 -10
-20 -22 -33 -42 -43 -66 -75 -73 -96 -3 -12 -10 -21 -14 -21 -16 0 -42 -76
-44 -128 -2 -42 2 -56 16 -63 9 -6 17 -19 17 -29 0 -11 3 -19 8 -19 25 4 42
-3 42 -18 0 -15 2 -16 10 -3 7 11 10 11 10 2 0 -7 5 -10 10 -7 6 4 8 11 5 16
-8 12 7 12 39 -1 21 -7 26 -6 26 5 0 18 12 19 27 4 8 -8 19 -3 39 18 16 15 45
37 64 47 42 23 100 79 100 96 0 7 7 10 16 6 12 -4 15 -2 10 9 -3 9 0 15 9 15
7 0 16 9 20 19 5 18 80 61 115 67 8 2 16 8 18 14 2 5 8 8 13 4 5 -3 23 2 41
10 23 12 34 13 44 5 10 -8 14 -8 14 -1 0 6 10 11 23 11 12 0 32 1 44 1 12 0
24 4 27 9 3 5 26 7 51 5 32 -3 44 -1 39 7 -5 8 -1 8 14 0 27 -15 35 -14 29 3
-4 11 2 12 31 5 47 -11 54 -11 48 -1 -2 4 8 7 22 6 15 0 30 4 34 9 4 8 14 7
32 -1 20 -9 27 -8 37 4 7 9 21 13 33 10 11 -3 27 0 35 7 10 8 13 8 8 1 -5 -9
19 -11 88 -9 53 1 98 -2 101 -7 3 -5 11 -5 18 1 8 7 24 7 49 0 21 -5 41 -8 46
-4 5 3 12 -1 14 -7 4 -9 6 -9 6 -1 1 12 38 7 58 -9 6 -5 12 -5 15 1 1 6 20 12
40 14 20 2 44 9 53 17 13 11 15 10 9 -4 -4 -11 -1 -16 10 -16 9 0 16 6 16 14
0 8 9 12 24 11 13 -2 35 3 49 10 18 9 28 10 36 2 8 -8 11 -6 11 6 0 9 5 17 11
17 7 0 20 9 30 21 10 12 23 18 30 13 7 -4 9 -3 6 3 -3 5 21 33 53 63 33 29 60
59 60 67 0 8 4 12 9 9 17 -11 43 6 38 25 -3 11 -1 19 4 19 5 0 9 6 9 13 0 7
16 26 35 42 19 17 35 35 35 42 0 13 35 70 72 118 13 16 22 33 20 38 -1 5 6 16
16 26 24 20 70 112 65 128 -3 7 1 22 8 35 14 26 17 46 23 168 4 92 -1 113 -34
149 -15 15 -27 48 -36 93 l-14 71 32 36 c17 20 46 46 63 58 36 25 87 88 78 97
-4 3 -1 6 5 6 7 0 12 6 12 13 0 7 11 29 25 49 14 20 25 42 25 48 0 6 11 35 24
63 13 29 33 72 44 97 34 73 34 104 3 133 -26 25 -80 39 -116 30z m-209 -711
c7 -28 9 -53 7 -56 -3 -3 -17 0 -32 6 -14 5 -37 12 -51 15 -14 2 -33 12 -44
21 -18 16 -19 16 -12 -12 6 -24 4 -27 -9 -22 -9 3 -19 6 -21 6 -12 0 -1 29 16
45 16 15 22 15 35 5 9 -7 15 -8 15 -2 0 12 61 51 75 48 5 -2 15 -26 21 -54z
m-1171 -82 c12 0 26 5 31 10 7 7 20 7 35 2 13 -5 60 -7 104 -5 44 3 91 4 105
4 14 0 48 -1 77 -1 29 0 55 -5 58 -10 3 -6 22 -10 41 -10 36 0 74 -15 74 -28
0 -9 -58 -32 -93 -38 -12 -2 -42 -7 -67 -13 -25 -5 -48 -7 -52 -5 -3 2 -8 0
-10 -6 -1 -5 -12 -11 -23 -13 -11 -2 -28 -7 -37 -12 -10 -4 -25 -4 -34 -1 -8
3 -25 -1 -38 -9 -14 -10 -38 -14 -62 -11 -21 2 -33 2 -26 -1 30 -12 6 -19 -74
-20 -57 -1 -87 3 -90 10 -2 7 -24 12 -49 12 -30 0 -45 4 -45 12 0 7 -4 12 -8
11 -16 -5 -74 52 -68 67 9 24 136 73 136 53 0 -7 4 -7 13 0 16 14 60 20 72 10
5 -4 18 -8 30 -8z m18 13 c-7 -2 -19 -2 -25 0 -7 3 -2 5 12 5 14 0 19 -2 13
-5z"/>
    <path d="M2060 1430 c0 -13 30 -13 50 0 11 7 7 10 -17 10 -18 0 -33 -4 -33
-10z"/>
    <path d="M2124 1415 c-10 -8 -14 -14 -9 -14 6 0 19 6 29 14 11 8 15 15 10 15
-6 0 -19 -7 -30 -15z"/>
    <path d="M2475 2010 c3 -5 8 -10 11 -10 2 0 4 5 4 10 0 6 -5 10 -11 10 -5 0
-7 -4 -4 -10z"/>
    <path d="M1175 1990 c-3 -5 -16 -11 -28 -11 -14 -1 -16 -3 -6 -6 21 -5 65 12
51 21 -6 3 -13 2 -17 -4z"/>
    <path d="M1043 1963 c9 -2 25 -2 35 0 9 3 1 5 -18 5 -19 0 -27 -2 -17 -5z"/>
    <path d="M1985 420 c-3 -5 -1 -10 4 -10 6 0 11 5 11 10 0 6 -2 10 -4 10 -3 0
-8 -4 -11 -10z"/>
  </g>
</svg>
