
<svg xmlns="http://www.w3.org/2000/svg" version="1.1" viewBox="20 0 366 290" style="shape-rendering:geometricPrecision; text-rendering:geometricPrecision; image-rendering:optimizeQuality; fill-rule:evenodd; clip-rule:evenodd" xmlns:xlink="http://www.w3.org/1999/xlink" fill="#CBCBCB">
<g><path d="M 26.5,0.5 C 59.835,0.33335 93.1683,0.500017 126.5,1C 160.082,7.36671 185.582,25.2 203,54.5C 229.891,13.8517 267.724,-3.98166 316.5,1C 342.923,6.12366 365.09,18.6237 383,38.5C 384.534,43.8398 383.367,48.3398 379.5,52C 375.5,54.6667 371.5,57.3333 367.5,60C 364.833,60.6667 362.167,60.6667 359.5,60C 333.373,33.5059 302.706,26.5059 267.5,39C 233.406,56.3461 217.906,84.1795 221,122.5C 227.886,157.717 248.719,179.551 283.5,188C 313.094,193.246 338.094,184.913 358.5,163C 362.167,161 365.833,161 369.5,163C 373.91,166.621 378.41,170.121 383,173.5C 383.667,177.167 383.667,180.833 383,184.5C 346.913,221.478 304.413,231.312 255.5,214C 232.991,204.157 215.491,188.657 203,167.5C 184.596,199.206 157.096,217.372 120.5,222C 89.8333,222.667 59.1667,222.667 28.5,222C 25.0629,220.895 22.5629,218.728 21,215.5C 20.3333,145.833 20.3333,76.1667 21,6.5C 22.3597,3.97739 24.193,1.97739 26.5,0.5 Z M 90.5,33.5 C 108.927,33.6833 125.26,39.5166 139.5,51C 157.859,66.9136 174.025,84.7469 188,104.5C 190.869,108.258 191.202,112.258 189,116.5C 172.62,139.882 153.12,160.382 130.5,178C 115.204,187.71 98.7043,190.543 81,186.5C 57.7863,178.421 47.453,162.088 50,137.5C 52.3213,126.691 57.8213,117.858 66.5,111C 50.7598,97.9 45.9264,81.4 52,61.5C 59.9384,45.4465 72.7718,36.1131 90.5,33.5 Z"/></g>
<g><path d="M 39.5,287.5 C 33.1667,287.5 26.8333,287.5 20.5,287.5C 20.5,275.167 20.5,262.833 20.5,250.5C 26.5092,250.334 32.5092,250.501 38.5,251C 51.2766,255.63 55.4432,264.463 51,277.5C 48.2058,282.134 44.3725,285.467 39.5,287.5 Z M 25.5,256.5 C 31.151,255.93 36.4843,256.93 41.5,259.5C 47.3371,266.975 46.6704,273.809 39.5,280C 34.964,281.379 30.2973,281.879 25.5,281.5C 25.5,273.167 25.5,264.833 25.5,256.5 Z"/></g>
<g><path d="M 82.5,287.5 C 74.1667,287.5 65.8333,287.5 57.5,287.5C 57.5,275.167 57.5,262.833 57.5,250.5C 65.8333,250.5 74.1667,250.5 82.5,250.5C 82.5,252.5 82.5,254.5 82.5,256.5C 76.5,256.5 70.5,256.5 64.5,256.5C 64.5,259.5 64.5,262.5 64.5,265.5C 69.5,265.5 74.5,265.5 79.5,265.5C 79.5,267.5 79.5,269.5 79.5,271.5C 74.5,271.5 69.5,271.5 64.5,271.5C 64.5,274.833 64.5,278.167 64.5,281.5C 70.5092,281.334 76.5092,281.501 82.5,282C 82.6491,283.816 82.6491,285.649 82.5,287.5 Z"/></g>
<g><path d="M 123.5,287.5 C 121.167,287.5 118.833,287.5 116.5,287.5C 116.5,277.167 116.5,266.833 116.5,256.5C 112.5,256.5 108.5,256.5 104.5,256.5C 104.261,254.533 104.594,252.699 105.5,251C 115.161,250.5 124.828,250.334 134.5,250.5C 134.5,252.5 134.5,254.5 134.5,256.5C 130.486,256.334 126.486,256.501 122.5,257C 123.486,267.084 123.819,277.251 123.5,287.5 Z"/></g>
<g><path d="M 166.5,287.5 C 164.167,287.5 161.833,287.5 159.5,287.5C 158.199,284.977 157.199,282.31 156.5,279.5C 151.167,278.167 145.833,278.167 140.5,279.5C 139.1,282.035 138.1,284.702 137.5,287.5C 135.167,287.5 132.833,287.5 130.5,287.5C 134.807,275.088 139.807,262.921 145.5,251C 149.151,249.877 151.651,251.044 153,254.5C 157.607,265.496 162.107,276.496 166.5,287.5 Z M 147.5,260.5 C 149.672,264.308 151.672,268.308 153.5,272.5C 149.878,273.659 146.211,273.825 142.5,273C 144.586,268.996 146.252,264.829 147.5,260.5 Z"/></g>
<g><path d="M 191.5,287.5 C 186.833,287.5 182.167,287.5 177.5,287.5C 173.846,285.076 170.679,282.076 168,278.5C 162.709,265.487 166.542,256.321 179.5,251C 186.588,249.172 192.588,250.839 197.5,256C 197.387,257.28 196.72,258.113 195.5,258.5C 182.472,251.18 173.805,254.68 169.5,269C 171.281,280.562 177.948,285.229 189.5,283C 191.925,281.829 194.258,280.829 196.5,280C 197.517,281.049 197.684,282.216 197,283.5C 194.985,284.697 193.151,286.03 191.5,287.5 Z"/></g>
<g><path d="M 229.5,287.5 C 228.167,287.5 226.833,287.5 225.5,287.5C 225.5,282.167 225.5,276.833 225.5,271.5C 219.242,271.81 213.076,271.476 207,270.5C 206.501,276.157 206.334,281.824 206.5,287.5C 205.167,287.5 203.833,287.5 202.5,287.5C 201.355,275.576 201.189,263.576 202,251.5C 203.356,250.62 204.856,250.286 206.5,250.5C 206.5,256.167 206.5,261.833 206.5,267.5C 212.833,267.5 219.167,267.5 225.5,267.5C 225.5,261.833 225.5,256.167 225.5,250.5C 226.833,250.5 228.167,250.5 229.5,250.5C 229.5,262.833 229.5,275.167 229.5,287.5 Z"/></g>
<g><path d="M 263.5,287.5 C 257.5,287.5 251.5,287.5 245.5,287.5C 245.5,275.167 245.5,262.833 245.5,250.5C 246.833,250.5 248.167,250.5 249.5,250.5C 249.333,261.838 249.5,273.172 250,284.5C 254.079,283.371 258.245,283.204 262.5,284C 263.337,285.011 263.67,286.178 263.5,287.5 Z"/></g>
<g><path d="M 284.5,287.5 C 278.5,287.5 272.5,287.5 266.5,287.5C 266.5,275.167 266.5,262.833 266.5,250.5C 272.176,250.334 277.843,250.501 283.5,251C 295.444,257.497 298.61,266.997 293,279.5C 290.271,282.399 287.438,285.066 284.5,287.5 Z M 270.5,254.5 C 284.524,252.704 291.357,258.704 291,272.5C 290.184,277.631 287.351,281.131 282.5,283C 278.579,283.203 274.745,283.703 271,284.5C 270.5,274.506 270.334,264.506 270.5,254.5 Z"/></g>
<g><path d="M 325.5,287.5 C 323.833,287.5 322.167,287.5 320.5,287.5C 318.807,283.628 316.474,280.128 313.5,277C 310.518,276.502 307.518,276.335 304.5,276.5C 304.5,280.167 304.5,283.833 304.5,287.5C 302.833,287.5 301.167,287.5 299.5,287.5C 299.5,275.167 299.5,262.833 299.5,250.5C 305.176,250.334 310.843,250.501 316.5,251C 324.52,254.207 327.353,260.041 325,268.5C 323.167,271.667 320.667,274.167 317.5,276C 320.803,279.455 323.469,283.289 325.5,287.5 Z M 304.5,254.5 C 308.936,254.21 313.27,254.71 317.5,256C 323.08,261.486 322.747,266.486 316.5,271C 312.579,271.203 308.745,271.703 305,272.5C 304.501,266.509 304.334,260.509 304.5,254.5 Z"/></g>
<g><path d="M 383.5,287.5 C 382.167,287.5 380.833,287.5 379.5,287.5C 373.939,278.055 368.105,268.721 362,259.5C 361.5,268.827 361.334,278.161 361.5,287.5C 359.833,287.5 358.167,287.5 356.5,287.5C 356.5,275.167 356.5,262.833 356.5,250.5C 358.288,250.215 359.955,250.548 361.5,251.5C 367.418,261.005 373.585,270.338 380,279.5C 380.5,269.839 380.666,260.172 380.5,250.5C 381.5,250.5 382.5,250.5 383.5,250.5C 383.5,262.833 383.5,275.167 383.5,287.5 Z"/></g>
<g><path d="M 110.5,287.5 C 102.833,287.5 95.1667,287.5 87.5,287.5C 87.5,275.167 87.5,262.833 87.5,250.5C 89.8333,250.5 92.1667,250.5 94.5,250.5C 94.5,260.833 94.5,271.167 94.5,281.5C 99.8333,281.5 105.167,281.5 110.5,281.5C 110.5,283.5 110.5,285.5 110.5,287.5 Z"/></g>
<g><path d="M 353.5,287.5 C 345.5,287.5 337.5,287.5 329.5,287.5C 329.5,275.167 329.5,262.833 329.5,250.5C 337.167,250.5 344.833,250.5 352.5,250.5C 352.5,251.833 352.5,253.167 352.5,254.5C 346.158,254.334 339.825,254.5 333.5,255C 334.46,258.73 334.793,262.563 334.5,266.5C 339.511,266.334 344.511,266.501 349.5,267C 350.833,268 350.833,269 349.5,270C 344.167,270.333 338.833,270.667 333.5,271C 334.464,275.066 334.797,279.233 334.5,283.5C 340.509,283.334 346.509,283.501 352.5,284C 353.337,285.011 353.67,286.178 353.5,287.5 Z"/></g>
<g><path d="M 239.5,287.5 C 238.167,287.5 236.833,287.5 235.5,287.5C 235.5,275.167 235.5,262.833 235.5,250.5C 236.833,250.5 238.167,250.5 239.5,250.5C 239.5,262.833 239.5,275.167 239.5,287.5 Z"/></g>
</svg>
