<svg version="1.0" xmlns="http://www.w3.org/2000/svg"
 viewBox="0 00 372 170" fill="#CBCBCB">

<g transform="translate(0.000000,172.000000) scale(0.100000,-0.100000)">
<path d="M1142 1694 c-61 -30 -112 -86 -150 -164 -23 -48 -27 -67 -27 -150 0
-86 3 -101 32 -163 18 -37 70 -129 117 -205 120 -194 150 -262 151 -338 0 -51
-4 -66 -29 -98 -73 -96 -229 -88 -270 14 -18 46 -20 78 -6 114 l9 26 -51 -20
c-99 -38 -166 -100 -211 -197 -31 -68 -32 -227 -1 -293 53 -113 167 -193 294
-206 275 -27 521 202 520 486 -1 172 -42 245 -314 557 -168 193 -202 265 -150
317 21 22 70 20 108 -4 38 -23 66 -71 96 -165 36 -112 62 -149 125 -181 46
-22 64 -26 102 -20 60 8 100 32 140 85 41 54 41 67 0 80 -43 15 -101 74 -126
131 -11 25 -29 89 -41 143 -26 121 -41 157 -86 206 -36 40 -103 71 -154 71
-14 0 -49 -12 -78 -26z"/>
<path d="M1768 1697 c-140 -40 -220 -171 -189 -309 26 -120 119 -193 325 -259
207 -66 277 -106 308 -177 24 -53 18 -102 -19 -150 -71 -93 -193 -73 -238 40
-20 50 -14 92 19 141 l24 35 -21 6 c-12 3 -52 6 -89 6 -98 0 -169 -29 -240
-100 -82 -83 -106 -177 -74 -295 60 -224 268 -364 485 -327 110 19 173 52 255
134 140 142 184 326 114 480 -52 114 -133 164 -364 228 -232 64 -293 98 -329
184 -20 47 -12 89 22 116 53 41 111 15 249 -110 119 -109 176 -140 254 -140
69 0 114 26 144 84 22 43 32 134 22 191 -6 32 -9 34 -28 24 -11 -6 -42 -9 -69
-7 -37 4 -62 16 -114 54 -102 76 -177 120 -230 139 -67 22 -161 28 -217 12z"/>
<path d="M348 1511 c-344 -113 -455 -516 -213 -770 99 -104 213 -147 364 -139
155 10 289 86 378 216 60 88 76 151 71 271 -10 195 -112 348 -275 412 -82 32
-244 37 -325 10z m452 -332 c74 -42 96 -135 53 -230 -42 -94 -142 -169 -225
-169 -164 0 -235 216 -114 348 62 69 208 95 286 51z"/>
<path d="M2753 1510 c-172 -41 -315 -227 -273 -356 52 -158 241 -195 396 -78
l35 28 -33 10 c-23 8 -39 22 -51 49 -18 36 -18 38 0 74 24 50 74 77 138 77 93
-2 153 -53 140 -120 -14 -78 -99 -140 -308 -228 -157 -66 -214 -109 -253 -191
-64 -134 11 -307 164 -382 50 -24 69 -28 147 -28 82 0 97 3 156 32 69 34 156
114 196 180 32 52 63 156 63 209 0 54 11 56 33 7 53 -121 166 -180 278 -147
86 26 148 125 136 217 -12 86 -80 182 -143 201 -18 5 -23 0 -33 -33 -24 -83
-102 -136 -163 -112 -39 15 -82 79 -106 158 -12 37 -31 101 -43 142 -43 140
-144 251 -263 286 -52 16 -159 18 -213 5z m446 -402 c14 -59 14 -176 0 -232
-23 -93 -111 -154 -179 -126 -49 20 -80 65 -80 116 0 48 18 70 148 182 36 31
66 66 73 87 15 41 22 36 38 -27z"/>
</g>
</svg>
