<svg xmlns="http://www.w3.org/2000/svg" viewBox="31 50 555 276" fill="#CBCBCB"><path d="M31.94,91.47c5.19-.19,10.41-.78,15.55-.37,2.19.18,4.79,2,6.15,3.9,2.42,3.31,4.46,3,7.48,1,12.9-8.21,26.26-8.32,39.41-.94,11,6.18,17,16.28,19.3,28.49,2.82,14.91,0,28.6-9.82,40.43-12.9,15.52-35.47,17.77-50.09,6.78a24.9,24.9,0,0,0-2.81-1.47,35.59,35.59,0,0,0-.67,4.67c-.06,7.78-.31,15.58,0,23.36.64,14.14-8.15,21.15-22.77,18.88-.59-.09-1.17-.21-1.76-.31Zm44.21,20.6c-12.36,0-20.42,8.47-20.47,21.44-.06,13.31,8.19,22.18,20.61,22.17,12.26,0,19.89-8.57,19.84-22.27C96.09,120.38,88.29,112.05,76.15,112.07Z"/><path d="M365.12,261.63c0-19.41.09-38.82-.09-58.23,0-3.36,1.06-4.71,4.26-5.05,7-.73,13.69-.79,18.41,5.81,1.88,2.64,4,1.18,5.92-.15,6.85-4.84,14.53-6.49,22.78-6.11a36.12,36.12,0,0,1,26.36,12.79c15.67,17.8,14.25,48.1-2.95,64.38a37.14,37.14,0,0,1-46.6,4,13.37,13.37,0,0,0-3.15-1.12,17.35,17.35,0,0,0-.69,3.35c-.06,8.51,0,17-.05,25.52-.09,13.71-9.34,19-21.9,17.46-2.59-.33-2.31-2.23-2.3-4Zm43.72-41.74c-12.5.08-20.3,8.53-20.23,21.93.07,13.16,8.27,21.82,20.59,21.76,12-.06,19.79-8.75,19.83-22.08C429.07,228.38,421.07,219.82,408.84,219.89Z"/><path d="M100.37,277.2c-.12,1.94-.26,3.2-.27,4.45,0,8.27.05,16.55,0,24.82-.11,13.22-8.31,19.33-21.66,17.84-2.14-.24-2.64-1.49-2.62-3.46.07-8.4,0-16.79,0-25.18,0-30.7.07-61.39-.09-92.09,0-3.57,1.17-5,4.46-5.27,7-.7,13.66-.6,18.38,6,1.84,2.58,4.06.83,6-.44,9.7-6.56,20.34-7.72,31.27-4.49C151,203.92,159.63,215,163,230c3.23,14.46,1,28.16-8.16,40.18-12.55,16.43-34,19.95-51.22,8.62C102.79,278.3,101.85,277.94,100.37,277.2Zm-1-35.81c0,15.76,11.5,25.21,26.13,21.45,9.12-2.34,14.71-11.19,14.1-22.34-.57-10.35-5.08-17.42-13.28-19.65C110.86,216.64,99,226.12,99.37,241.39Z"/><path d="M253.05,133.54c0,12.7-.12,25.42.07,38.12.06,3.42-1.39,4.44-4.36,4.53-7,.21-13.95.34-19.21-5.71-.52-.59-3.15,0-4.3.73-12,8.07-24.74,9.18-37.48,2.89-16.69-8.23-23.39-22.85-23.57-40.88A45.32,45.32,0,0,1,172,106.76a37.6,37.6,0,0,1,52.27-10.54c2.92,1.91,4.83,2,7.15-1.14,3.68-4.93,15.12-6.9,20.24-3.72.88.54,1.31,2.42,1.32,3.69C253.08,107.88,253.05,120.71,253.05,133.54ZM229.3,134c.08-15.73-12-25.26-26.63-21-8,2.32-12.94,8.72-13.71,19C188.21,142,192,152,202,154.89,216.74,159.18,229.55,150.4,229.3,134Z"/><path d="M197.91,250.06c.59,8.44,7.44,14.3,16.64,15a33.55,33.55,0,0,0,18.66-4.08c8.77-4.69,16.67-2.22,21.59,6.43,1.25,2.2.85,3.62-1,5.27-16.54,15.11-44.34,17.53-63.19,5.41-14.87-9.55-21.86-27.2-18.16-45.83a43,43,0,0,1,33.71-33.38,50.33,50.33,0,0,1,24.86,1c19.81,6.17,27.46,23.26,28.59,38,.55,7.15-3.67,11.68-11,11.78-15.34.22-30.68.11-46,.16C201.17,249.78,199.65,250,197.91,250.06Zm-.28-16.88a19.87,19.87,0,0,0,2.3.32c10.06,0,20.13.06,30.19,0,3.81,0,4.68-1.56,3.1-5-3-6.56-9.54-10.3-18-9.8-7.58.45-13.49,3.85-16.75,11A18.85,18.85,0,0,0,197.63,233.18Z"/><path d="M522.55,250.22c1.86,9.09,7.86,14.11,16.83,14.8a33.28,33.28,0,0,0,18.67-4c8.91-4.75,16.9-2.24,21.82,6.61,1,1.9,1,3.22-.71,4.68-8.43,7.42-18.17,12.06-29.33,13.17-10.52,1.05-20.79-.26-30.38-5.17-16.61-8.49-25.27-26-22.49-45.47a43.06,43.06,0,0,1,34.09-36,51.67,51.67,0,0,1,24.19.76c17,4.81,29.38,21.38,29.2,38.87-.08,7.08-3.6,11-10.76,11.13-15.46.22-30.92.11-46.39.17C525.8,249.79,524.31,250.05,522.55,250.22Zm17.33-16.7c5,0,10.06.06,15.1,0,3.81-.06,4.69-1.52,3.15-5-2.91-6.58-9.43-10.15-18-9.88-7.42.24-14.65,5.17-17,11.35-1.08,2.88-.07,3.64,2.69,3.58C530.53,233.45,535.21,233.53,539.88,233.52Z"/><path d="M312.18,197.83c22.26-.07,39.8,13.47,44.5,34.35,6.1,27.1-13.86,52.43-41.67,53.54-23.24.92-39.89-13-45.58-28.86C258.88,227.52,280.27,197.93,312.18,197.83ZM292,241.9c.05,16,12.38,25.53,27,20.94,8.42-2.64,13.56-10.62,13.56-21s-5.18-18.35-13.66-20.95C304.22,216.35,292,226,292,241.9Z"/><path d="M265.22,176V172.2c0-25.65,0-51.3-.05-77,0-2.66.44-4,3.49-4.53,7.47-1.24,14.07-.38,19.13,5.92,1.91,2.37,3.77,1.18,5.6-.21,7.95-6,17.05-7.57,26.57-5.88,13.21,2.35,22.24,12,24.73,25.68a40.64,40.64,0,0,1,.8,7.12c.09,16.66.08,33.32.08,50,0,.82-.16,1.63-.29,2.88-7.38,0-14.65,0-21.92,0-2.55,0-1.94-2-1.94-3.4,0-14.63,0-29.25-.06-43.88a31.32,31.32,0,0,0-.88-7.8c-1.32-4.94-5-7.77-10.15-8.26-13.41-1.27-20.91,5.55-20.94,19.12,0,13.3,0,26.61,0,39.92V176Z"/><path d="M412.93,91.63v21.24c-5.55,0-11,0-16.47,0-4.8,0-4.82,0-4.82,4.7,0,9.82-.11,19.65.05,29.48.17,9.53,3.67,11.94,12.77,9.13,1-.32,2.06-1.08,3-1,1.16.1,2.82.59,3.29,1.45a93.15,93.15,0,0,1,5.21,11,4,4,0,0,1-.9,3.52c-8.74,7.75-27,9.26-36.91,3.15-8.28-5.11-10.59-13.24-10.71-22.24q-.23-17.61,0-35.23c.05-3.13-.78-4.34-4-4a46.35,46.35,0,0,1-9-.06,3.61,3.61,0,0,1-2.52-2.36c-.24-5-.25-10.07,0-15.09a3.76,3.76,0,0,1,2.36-2.7c12.76-2.3,17.78-7.83,18-20.76.05-3.43,1-4.69,4.45-4.41a67.12,67.12,0,0,0,10.42,0c3.37-.25,4.71.77,4.52,4.36-.29,5.38,0,10.79-.11,16.18-.07,2.81,1,3.78,3.81,3.7C401.13,91.51,406.86,91.63,412.93,91.63Z"/><path d="M154.78,119.44c0,17.26-.06,34.51.07,51.76,0,2.73-.87,4.09-3.47,4.31-3.32.28-6.68.85-10,.59-5.63-.43-9.81-5-10.7-11.35a59.76,59.76,0,0,1-.62-8.23c0-33.07,0-66.13-.11-99.2,0-3.46,1-5.22,4.42-5.35s7-.77,10.28-.12c6.58,1.29,10,7,10.08,15.84C154.83,84.94,154.78,102.19,154.78,119.44Z"/><path d="M463.09,216c0-17.26.06-34.51,0-51.77,0-2.59.57-4.14,3.33-4.37s5.71-.88,8.53-.74c6.78.33,11.08,4.28,12.22,11a47.15,47.15,0,0,1,.69,7.86c.05,33.44,0,66.87.11,100.31,0,3.39-1.22,4.89-4.32,5.15s-6.26.88-9.24.39c-7.54-1.24-11.21-6.89-11.25-16.75C463.05,250,463.09,233,463.09,216Z"/></svg>