<svg version="1.0" xmlns="http://www.w3.org/2000/svg" viewBox="21 17 371 106" fill="#CBCBCB">
  <g transform="translate(0.000000,145.000000) scale(0.100000,-0.100000)">
    <path d="M880 1261 c-128 -42 -197 -157 -170 -287 15 -71 58 -127 122 -161
118 -60 267 -24 333 82 27 44 30 56 30 136 0 81 -2 90 -30 130 -47 66 -110
101 -192 105 -38 2 -79 0 -93 -5z m165 -60 c122 -55 150 -216 55 -311 -46 -46
-104 -65 -174 -56 -193 22 -239 275 -67 366 47 25 133 26 186 1z"/>
    <path d="M1420 1259 c-87 -26 -131 -95 -107 -167 19 -57 60 -75 186 -80 117
-5 156 -18 172 -59 22 -59 -31 -110 -125 -120 -82 -9 -140 4 -198 43 -48 33
-53 34 -65 18 -11 -14 -7 -21 29 -50 140 -110 408 -61 408 76 0 54 -17 87 -58
112 -29 18 -57 23 -155 28 -109 5 -121 8 -138 29 -23 29 -24 50 -3 80 40 56
161 68 253 26 42 -20 56 -23 63 -13 13 21 5 32 -46 57 -54 27 -159 37 -216 20z"/>
    <path d="M220 1024 l0 -235 23 3 c21 3 22 8 25 101 l3 98 91 -3 92 -3 51 -88
c61 -104 66 -110 94 -105 19 3 16 10 -35 98 -31 52 -52 96 -47 97 96 32 137
120 95 203 -29 60 -65 70 -239 70 l-153 0 0 -236z m334 165 c36 -28 37 -89 1
-124 -23 -24 -29 -25 -155 -25 l-130 0 0 85 0 85 129 0 c115 0 131 -2 155 -21z"/>
    <path d="M1812 1028 l3 -233 183 -3 182 -2 0 25 0 25 -160 0 -160 0 0 85 0 85
90 0 c89 0 90 0 90 25 0 25 -1 25 -90 25 l-90 0 0 75 0 75 160 0 160 0 0 25 0
25 -185 0 -185 0 2 -232z"/>
    <path d="M2262 1238 c3 -22 8 -23 91 -26 l87 -3 0 -210 0 -210 23 3 c22 3 22
4 25 211 l2 207 85 0 c84 0 85 0 85 25 l0 25 -201 0 -200 0 3 -22z"/>
    <path d="M2740 1235 c0 -25 1 -25 85 -25 l85 0 2 -207 c3 -207 3 -208 26 -211
l22 -3 0 210 0 210 88 3 c82 3 87 4 90 26 l3 22 -200 0 -201 0 0 -25z"/>
    <path d="M3245 1030 c-63 -126 -115 -232 -115 -235 0 -3 10 -5 23 -5 18 0 30
16 65 85 l42 85 119 0 120 0 43 -82 c32 -62 49 -84 66 -86 12 -2 22 1 22 7 0
6 -51 112 -112 236 -97 194 -116 225 -135 225 -20 0 -39 -32 -138 -230z m225
-21 c0 -5 -40 -9 -90 -9 -55 0 -90 4 -90 10 0 6 20 51 45 101 l46 91 44 -92
c25 -50 45 -96 45 -101z"/>
    <path d="M3870 745 c0 -508 0 -515 20 -515 20 0 20 7 20 515 0 508 0 515 -20
515 -20 0 -20 -7 -20 -515z"/>
    <path d="M1485 705 c-5 -2 -26 -6 -46 -9 -48 -8 -113 -53 -144 -98 -55 -81
-53 -197 5 -277 82 -113 273 -136 377 -46 38 32 38 33 42 119 l3 86 -106 0
-106 0 0 -25 c0 -25 1 -25 80 -25 l80 0 0 -48 c0 -77 -51 -112 -161 -112 -74
0 -115 17 -156 63 -61 69 -69 162 -19 237 38 58 95 84 183 85 65 0 76 -3 119
-33 43 -31 48 -32 63 -17 15 15 14 18 -9 36 -52 42 -163 77 -205 64z"/>
    <path d="M1817 693 c-4 -3 -7 -109 -7 -235 l0 -228 185 0 185 0 0 25 0 25
-160 0 -160 0 0 85 0 85 90 0 c83 0 90 1 90 20 0 19 -7 20 -90 20 l-90 0 0 80
0 80 160 0 160 0 0 25 0 25 -178 0 c-98 0 -182 -3 -185 -7z"/>
    <path d="M2267 693 c-4 -3 -7 -15 -7 -25 0 -16 9 -18 90 -18 l90 0 0 -210 0
-210 25 0 25 0 0 210 0 210 85 0 c84 0 85 0 85 25 l0 25 -193 0 c-107 0 -197
-3 -200 -7z"/>
    <path d="M2740 675 c0 -25 1 -25 85 -25 l85 0 0 -210 0 -210 25 0 25 0 0 210
0 210 91 0 c88 0 90 1 87 23 -3 22 -4 22 -200 25 l-198 2 0 -25z"/>
    <path d="M3200 695 c0 -3 43 -62 95 -132 l95 -126 0 -104 0 -103 25 0 25 0 0
101 0 102 95 127 c52 70 95 130 95 134 0 3 -11 6 -24 6 -19 0 -42 -24 -107
-111 l-83 -111 -17 23 c-129 176 -145 194 -172 197 -15 2 -27 1 -27 -3z"/>
  </g>
</svg>
