<svg xmlns="http://www.w3.org/2000/svg" viewBox="56 12 122 34"><path fill="#CBCBCB" d="M121.274 22.024a7.761 7.761 0 0 0-3.36.732l-.397.202a1.138 1.138 0 0 1-.369.094.19.19 0 0 1-.202-.128.878.878 0 0 0-.826-.605h-2.016a.903.903 0 0 0-.901.9v20.778a.91.91 0 0 0 .262.638.902.902 0 0 0 .639.262h2.016a.892.892 0 0 0 .893-.9V37.74c0-.235 0-.437.269-.437.116.01.228.045.329.1a8.126 8.126 0 0 0 11.555-5.375 8.124 8.124 0 0 0-7.892-10.005Zm0 12.317a4.195 4.195 0 0 1-3.879-2.584 4.197 4.197 0 0 1 3.051-5.721 4.195 4.195 0 0 1 5.014 4.112 4.193 4.193 0 0 1-4.186 4.193Zm-18.459-12.317a7.787 7.787 0 0 0-7.748 7.99 7.74 7.74 0 0 0 7.815 7.99 8.014 8.014 0 0 0 5.624-2.097.672.672 0 0 0 0-1.001l-1.498-1.78c-.269-.303-.598-.236-1.001 0a5.325 5.325 0 0 1-2.957.967 3.661 3.661 0 0 1-3.655-3.36h9.736a.749.749 0 0 0 .719-.618c0-.269.067-.766.067-1.035a6.984 6.984 0 0 0-7.102-7.055Zm-3.091 6.095a3.017 3.017 0 0 1 2.963-2.6 2.874 2.874 0 0 1 2.789 2.6h-5.752ZM85.86 22.025a7.788 7.788 0 0 0-7.747 7.99 7.741 7.741 0 0 0 7.815 7.99 8.017 8.017 0 0 0 5.65-2.097.672.672 0 0 0 0-1.002l-1.531-1.78c-.262-.303-.598-.235-.995 0a5.33 5.33 0 0 1-2.963.967 3.676 3.676 0 0 1-3.656-3.36h9.744a.753.753 0 0 0 .732-.631c.034-.269.068-.766.068-1.035a6.968 6.968 0 0 0-7.117-7.042Zm-3.057 6.095a3.003 3.003 0 0 1 2.957-2.6 2.876 2.876 0 0 1 2.795 2.6h-5.752ZM74.752 12.97h-3.206a.746.746 0 0 0-.732.733l.37 22.739a1.216 1.216 0 0 0 1.196 1.203h1.458a1.197 1.197 0 0 0 1.203-1.203l.43-22.74a.745.745 0 0 0-.72-.732ZM63.147 28.025c-1.398-.564-2.097-.8-2.097-1.498 0-.504.37-.867 1.297-.867a9.126 9.126 0 0 1 3.152.8.733.733 0 0 0 .9-.269l.961-1.928a.82.82 0 0 0-.33-1.035 8.783 8.783 0 0 0-4.703-1.163c-3.87 0-5.564 2.164-5.564 4.495 0 2.332 1.344 3.885 4.287 5.027 2.016.8 2.56 1.23 2.56 1.895s-.53.994-1.296.994a8.448 8.448 0 0 1-3.454-.9.57.57 0 0 0-.867.269l-1.028 2.036a.672.672 0 0 0 .228.8 8.736 8.736 0 0 0 5.053 1.397c3.857 0 6.048-2.13 6.048-4.663.007-2.97-2.224-4.26-5.147-5.39Zm69.489-4.914a.734.734 0 0 1 .732-.726h1.19a.59.59 0 0 1 .625.43l.564 1.452a5.803 5.803 0 0 1 4.657-2.211c2.211 0 3.299.793 4.556 2.312a6.506 6.506 0 0 1 4.919-2.312c4.885 0 6.047 3.105 6.047 7.069v7.788a.745.745 0 0 1-.759.726h-2.641a.732.732 0 0 1-.726-.726v-7.889c0-1.982-.725-3.205-2.64-3.205a2.91 2.91 0 0 0-2.843 1.586s.067.76.067 1.451v8.064a.75.75 0 0 1-.725.726h-2.688a.712.712 0 0 1-.726-.726v-7.896c0-1.982-.564-3.205-2.513-3.205-1.949 0-2.574 1.344-2.937 2.379v8.735a.748.748 0 0 1-.739.706h-2.688a.75.75 0 0 1-.725-.726l-.007-13.802Zm33.448-1.054a6.834 6.834 0 0 1 7.002 7.05c-.006.33-.028.659-.067.987a.774.774 0 0 1-.726.672h-9.77a3.676 3.676 0 0 0 1.145 2.572 3.668 3.668 0 0 0 2.631 1.003 5.058 5.058 0 0 0 3.266-1.123c.363-.295.759-.329.995 0l1.283 1.714a.673.673 0 0 1-.067.994 8.596 8.596 0 0 1-5.678 2.077c-4.556 0-7.721-3.629-7.721-7.99 0-4.36 3.219-7.956 7.707-7.956Zm2.843 6.048a2.789 2.789 0 0 0-2.937-2.64 3.03 3.03 0 0 0-3.239 2.64h6.176Zm6.58 6.168c.342 0 .644.076.907.23.269.153.479.365.628.636.156.271.234.575.234.91 0 .337-.078.64-.234.911a1.633 1.633 0 0 1-.628.628c-.263.153-.565.23-.907.23-.341 0-.646-.077-.915-.23a1.698 1.698 0 0 1-.637-.628 1.85 1.85 0 0 1-.225-.91c0-.336.075-.64.225-.911a1.68 1.68 0 0 1 .637-.637c.269-.153.574-.23.915-.23Zm0 3.253c.431 0 .778-.138 1.042-.415.269-.277.404-.631.404-1.061 0-.43-.135-.784-.404-1.061-.264-.277-.611-.416-1.042-.416-.436 0-.789.139-1.059.416-.263.277-.395.63-.395 1.06 0 .43.132.785.395 1.062.27.277.623.415 1.059.415Zm.781-1.865a.558.558 0 0 1-.125.37.612.612 0 0 1-.35.187l.538.76-.458.009-.493-.752h-.207v.752h-.386v-1.901h.835c.198 0 .353.053.467.159.12.1.179.239.179.416Zm-1.095.256h.422c.084 0 .153-.02.207-.062.053-.041.08-.103.08-.186s-.027-.141-.08-.176a.331.331 0 0 0-.207-.062h-.422v.486Z"/></svg>