<svg xmlns="http://www.w3.org/2000/svg" version="1.1" viewBox="12 4 342 110" xmlns:xlink="http://www.w3.org/1999/xlink" fill="#CBCBCB">
    <path d="M175.4,113.1h-11.6V92.5h12.1c2.3,0,4.2,0.4,5.6,1.3c1.6,0.9,2.3,2.3,2.3,3.9c0,0.9-0.4,1.7-1.1,2.6   c-0.9,1.2-2.2,1.9-3.8,2.1c2,0.2,3.5,0.9,4.6,2c0.8,0.9,1.3,1.9,1.3,3.1c0,1.8-0.9,3.2-2.6,4.3   C180.4,112.7,178.2,113.1,175.4,113.1 M175.9,93.2h-11.2v8.8h11.2c2,0,3.7-0.4,5-1.1c1.4-0.8,2-1.8,2-3.2c0-1.5-0.7-2.6-2-3.4   C179.7,93.6,178,93.2,175.9,93.2 M175.9,102.7h-11.2v9.6h11.1c2.4,0,4.3-0.4,5.7-1.2c1.5-0.9,2.3-2.1,2.3-3.6   c0-1.6-0.8-2.8-2.4-3.7C180,103.1,178.2,102.7,175.9,102.7"/>
    <polygon points="192.8,113.1 192.8,92.5 211.6,92.5 211.6,93.2 193.6,93.2 193.6,102 210.5,102 210.5,102.7    193.6,102.7 193.6,112.4 211.8,112.4 211.8,113.1  "/>
    <path d="M240.4,113.1l-3.6-6.7h-14.2l-3.7,6.7h-1l11.4-20.7h1.1l11,20.7H240.4z M229.8,93.2l-6.8,12.5h13.4L229.8,93.2   z"/>
    <path d="M260.7,113.6c-6.9,0-10.3-2.7-10.3-8.2v-13h0.9v13c0,5,3.2,7.5,9.5,7.5c6.3,0,9.5-2.5,9.5-7.5v-13h0.9v13   C271.1,110.9,267.6,113.6,260.7,113.6"/>
    <polygon points="292.2,93.2 292.2,113.1 291.3,113.1 291.3,93.2 281.2,93.2 281.2,92.5 302.3,92.5 302.3,93.2  "/>
    <polygon    points="320,104.5 320,113.1 319.1,113.1 319.1,104.5 307.8,92.5 308.9,92.5 319.5,103.7 330.2,92.5    331.3,92.5  "/>
    <polygon    points="55.2,71.1 49.6,71.1 39.3,41.9 29.3,71.1 23.6,71.1 13,24.2 17.5,24.2 26.6,64.8 36.3,36.1 42,36.1    52,64.8 60.8,24.2 65.5,24.2  "/>
    <path    d="M134.5,48.1c0,13.7-10.4,24.8-24,24.8c-13.7,0-24.2-11-24.2-25c0-13.8,10.5-25.3,24.2-25.3   C124.4,22.6,134.5,33.8,134.5,48.1 M90.8,47.8c0,11.5,8.6,20.4,19.8,20.4c11.1,0,19.5-9,19.5-20.2c0-11.8-8.2-20.9-19.5-20.9   C99.3,27.2,90.8,36.5,90.8,47.8"/>
    <path    d="M227.4,58.1v0.8c0,5.2,7.8,9.3,17.3,9.3c9.9,0,17.3-4.4,17.3-10.4c0-2.6-1.9-5.4-5-7.1c-2.9-1.6-6-2.4-12.1-3   c-8.3-0.9-11.5-1.7-14.6-3.6c-3.2-2-5.2-5.4-5.2-8.9c0-7.3,8.2-12.7,19.2-12.7c6.5,0,11.3,1.9,14.6,4.4c3.5,2.6,5.3,5.9,5.4,8.2   c0,0.1,0.1,0.3,0,0.3c-0.1-0.1-4.6,0.4-4.6,0.1c0-4.5-6.4-8.3-15-8.3c-8.3,0-14.6,3.6-14.6,8.4c0,1.8,1.2,3.7,3.6,5.1   c2.5,1.6,3.2,1.8,13,2.8c6.9,0.8,11,2,14.6,4.4c3.5,2.4,5.6,6.2,5.6,10.1c0,8.5-9.3,14.8-22,14.8c-7.9,0-13.8-2.5-17.4-5.7   c-3.2-2.8-4.7-6-4.8-8.3c0-0.1,0-0.7,0-0.7L227.4,58.1z"/>
    <path    d="M294.1,32c5.7-6.9,10.5-9.4,17.3-9.4c10.5,0,17.9,6.6,17.9,15.8v32.7h-4.6V38.7c0-3.4-1.5-6.3-4.3-8.5   c-2.6-2.1-5.1-2.9-9.6-2.9c-6.3,0-9.5,1.9-15.5,9.1l-1.2,1.5v33.3h-4.6v-68h4.6V32z"/>
    <path    d="M200.8,47.8c0,13.7-10.4,24.8-24,24.8c-13.7,0-24.2-11-24.2-25c0-13.8,10.5-25.2,24.2-25.2   C190.6,22.3,200.8,33.5,200.8,47.8 M157.1,47.6c0,11.5,8.6,20.4,19.8,20.4c11.1,0,19.5-9,19.5-20.2c0-11.8-8.2-20.9-19.5-20.9   C165.6,26.9,157.1,36.2,157.1,47.6"/>
    <path    d="M219.8,9.5c0,0-0.1,7-6.8,12.4c-3,2.4-7.2,4.3-12.4,4.7c-1.7,0.1-5.5-1.2-4.8-1.2   C200,25.7,210.7,24.3,219.8,9.5"/>
    <path    d="M189.7,15.2c1.9-2.1,3.6-5,4.8-8.8c0,0,0.2,7.5-3.6,10.9c-5,4.5-7.7,2.7-7.7,2.7S186.5,18.6,189.7,15.2"/>
    <path    d="M200.4,15.8c4-3.1,5-6.9,5.6-10.6c0,0,1.5,7.3-3.3,11.7c-4.7,4.4-10.1,5.9-14.3,6.2   C188.4,23.1,193.1,21.3,200.4,15.8"/>
    <path    d="M67.1,85.8c0,0,0.1-7,6.8-12.4c3-2.4,7.2-4.3,12.4-4.7c1.7-0.1,5.5,1.2,4.8,1.2C86.9,69.6,76.2,71,67.1,85.8"/>
    <path    d="M97.2,80.2c-1.9,2.1-3.6,5-4.8,8.8c0,0-0.2-7.5,3.6-10.9c5-4.5,7.7-2.7,7.7-2.7S100.3,76.7,97.2,80.2"/>
    <path    d="M86.4,79.5c-4,3.1-5,6.9-5.6,10.6c0,0-1.5-7.3,3.3-11.7c4.7-4.4,10.1-5.9,14.3-6.2   C98.4,72.2,93.8,74,86.4,79.5"/>
    <path d="M352.3,67.6c0,2.5-1.9,4.4-4.5,4.4c-2.5,0-4.5-1.9-4.5-4.4c0-2.4,2-4.4,4.5-4.4C350.4,63.2,352.3,65.1,352.3,67.6z    M344.5,67.6c0,1.9,1.4,3.5,3.4,3.5c1.9,0,3.3-1.5,3.3-3.5c0-1.9-1.4-3.5-3.4-3.5C345.9,64.1,344.5,65.6,344.5,67.6z M347.2,69.9   h-1v-4.4c0.4-0.1,1-0.1,1.7-0.1c0.8,0,1.2,0.1,1.5,0.3c0.2,0.2,0.4,0.5,0.4,1c0,0.5-0.4,0.9-0.9,1v0.1c0.4,0.2,0.7,0.5,0.8,1.1   c0.1,0.7,0.2,0.9,0.3,1.1h-1.1c-0.1-0.2-0.2-0.6-0.3-1.1c-0.1-0.5-0.3-0.7-0.9-0.7h-0.5V69.9z M347.2,67.4h0.5c0.6,0,1-0.2,1-0.6   c0-0.4-0.3-0.7-0.9-0.7c-0.3,0-0.5,0-0.6,0.1V67.4z"/>
</svg>
